<svg width="130" height="131" viewBox="0 0 130 131" fill="none" xmlns="http://www.w3.org/2000/svg">
<path d="M57.2968 78.2007L78.2073 57.3144L84.551 58.3038C84.551 58.3038 90.4402 56.2301 91.4782 51.9878C92.5163 47.7454 92.3467 41.5175 92.3467 41.5175C92.3467 41.5175 85.4195 51.0322 84.0286 50.5172C82.6445 49.9954 80.6159 47.6912 80.6159 47.6912C80.6159 47.6912 77.5153 44.9059 76.9996 43.5167C76.4772 42.1342 86.0098 35.2082 86.0098 35.2082C86.0098 35.2082 79.7746 35.032 75.5274 36.0756C71.2801 37.1193 69.204 42.9948 69.204 42.9948L69.7943 48.701L48.7888 69.6822L42.5943 68.8283C42.5943 68.8283 36.7052 70.902 35.6671 75.1443C34.629 79.3867 34.7987 85.6146 34.7987 85.6146C34.7987 85.6146 41.7259 76.0999 43.1167 76.6149C44.5008 77.1367 46.5294 79.4409 46.5294 79.4409C46.5294 79.4409 49.6301 82.2262 50.1457 83.6154C50.6681 84.9979 41.1356 91.9239 41.1356 91.9239C41.1356 91.9239 47.3707 92.1001 51.618 91.0564C55.8652 90.0128 57.9413 84.1373 57.9413 84.1373L57.3375 78.2549L57.2968 78.2075V78.2007ZM65.9066 64.1455C66.2391 63.8473 66.7547 63.8744 67.0532 64.2065C67.3518 64.5385 67.3246 65.0536 66.9922 65.3518L65.0653 67.0866C64.7329 67.3848 64.2172 67.3577 63.9187 67.0256C63.6202 66.6936 63.6473 66.1785 63.9798 65.8803L65.9066 64.1455ZM60.5263 62.1463L62.4532 60.4114C62.7856 60.1132 63.3013 60.1403 63.5998 60.4724C63.8983 60.8045 63.8712 61.3195 63.5387 61.6177L61.6119 63.3526C61.2794 63.6508 60.7638 63.6236 60.4653 63.2916C60.1667 62.9595 60.1939 62.4445 60.5263 62.1463Z" fill="#101012"/>
<path d="M53.5241 51.3367L51.0179 53.8369L56.4668 59.2727L58.973 56.7725L53.5241 51.3367Z" fill="#101012"/>
<path d="M43.9716 48.7171C45.6341 48.7171 46.9818 47.3727 46.9818 45.7142C46.9818 44.0557 45.6341 42.7112 43.9716 42.7112C42.3091 42.7112 40.9614 44.0557 40.9614 45.7142C40.9614 47.3727 42.3091 48.7171 43.9716 48.7171Z" fill="#101012"/>
<path d="M36.4322 52.0109L37.2229 51.4712C38.3257 52.7512 39.7823 53.7199 41.4538 54.2043L41.3706 55.4705C41.3151 56.2801 41.9324 56.9789 42.7439 57.0343H42.8063C43.6179 57.0965 44.3184 56.4807 44.3739 55.6712L44.4502 54.5433C49.132 54.2942 52.8496 50.4402 52.8496 45.7074C52.8496 44.5726 52.6277 43.4863 52.2323 42.483L53.0716 41.9987C53.7929 41.5835 54.0357 40.6632 53.6195 39.9506C53.2034 39.2309 52.2809 38.9888 51.5665 39.4039L50.6717 39.916C49.5967 38.6774 48.1817 37.7295 46.5726 37.2382L46.7044 36.1934C46.8084 35.37 46.2258 34.6158 45.4004 34.512C44.575 34.4082 43.819 34.9894 43.715 35.8128L43.5832 36.8715C41.5856 36.9545 39.7614 37.6879 38.3188 38.8711L37.646 38.2C37.0703 37.6257 36.1339 37.6257 35.5582 38.2L35.5166 38.2415C34.9409 38.8158 34.9409 39.7499 35.5166 40.3242L36.3559 41.1614C35.5513 42.4899 35.0866 44.0468 35.0866 45.7143C35.0866 46.8352 35.3016 47.9008 35.6831 48.8903L34.7398 49.5338C34.067 49.9904 33.8936 50.9038 34.3514 51.5749L34.3861 51.6234C34.8438 52.2946 35.7594 52.4675 36.4322 52.0109ZM43.9716 39.8883C47.1968 39.8883 49.8117 42.4968 49.8117 45.7143C49.8117 48.9318 47.1968 51.5403 43.9716 51.5403C40.7464 51.5403 38.1315 48.9318 38.1315 45.7143C38.1315 42.4968 40.7464 39.8883 43.9716 39.8883Z" fill="#101012"/>
<path d="M85.2337 88.2886C86.8962 88.2886 88.2439 86.9441 88.2439 85.2856C88.2439 83.6271 86.8962 82.2827 85.2337 82.2827C83.5712 82.2827 82.2235 83.6271 82.2235 85.2856C82.2235 86.9441 83.5712 88.2886 85.2337 88.2886Z" fill="#101012"/>
<path d="M94.847 79.425L94.8123 79.3766C94.3545 78.7054 93.439 78.5325 92.7662 78.9891L91.9755 79.5288C90.8726 78.2488 89.4161 77.2801 87.7445 76.7957L87.8277 75.5295C87.8832 74.7199 87.2659 74.0211 86.4544 73.9657H86.392C85.5805 73.9035 84.88 74.5193 84.8245 75.3288L84.7482 76.4567C83.139 76.5397 81.6409 77.0517 80.3716 77.882L71.7571 69.2883L69.2532 71.7862L77.8469 80.3592C76.8966 81.7707 76.3418 83.4659 76.3418 85.2926C76.3418 86.4274 76.5637 87.5137 76.9591 88.517L76.1198 89.0013C75.3985 89.4165 75.1557 90.3368 75.5719 91.0494C75.988 91.7691 76.9105 92.0112 77.6249 91.5961L78.5197 91.084C79.5947 92.3226 81.0097 93.2705 82.6188 93.7618L82.487 94.8066C82.383 95.63 82.9656 96.3842 83.791 96.488C84.6164 96.5918 85.3724 96.0106 85.4765 95.1872L85.6082 94.1285C87.6058 94.0455 89.43 93.3121 90.8726 92.1289L91.5454 92.8C92.1211 93.3743 93.0575 93.3743 93.6332 92.8L93.6748 92.7585C94.2505 92.1842 94.2505 91.2501 93.6748 90.6758L92.8355 89.8386C93.6401 88.5101 94.1048 86.9532 94.1048 85.2857C94.1048 84.1648 93.8898 83.0992 93.5083 82.1097L94.4516 81.4662C95.1244 81.0096 95.2978 80.0962 94.84 79.425H94.847ZM85.2268 91.1117C82.0015 91.1117 79.3867 88.5032 79.3867 85.2857C79.3867 82.0682 82.0015 79.4596 85.2268 79.4596C88.452 79.4596 91.0668 82.0682 91.0668 85.2857C91.0668 88.5032 88.452 91.1117 85.2268 91.1117Z" fill="#101012"/>
</svg>
