<svg width="130" height="131" viewBox="0 0 130 131" fill="none" xmlns="http://www.w3.org/2000/svg">
<path d="M56.4325 32.5C56.4325 32.5 36.3291 41.5738 33.6406 45.4799C31.1527 49.0906 42.2812 45.2785 40.1277 45.4799C37.9743 45.6812 25 57.6946 25 57.6946C25.7892 57.2248 47.832 44.0302 49.0358 43.1711C53.0351 40.2852 40.7163 43.1309 40.7163 43.1309L56.4325 32.5Z" fill="#101012"/>
<path d="M94.3789 84.4999C89.8981 84.4999 86.0727 86.0167 84.5077 88.1509C82.9428 86.0167 79.1174 84.4999 74.6366 84.4999C70.1558 84.4999 66.5578 85.9227 64.9126 87.963C63.2674 85.9227 59.5356 84.4999 55.1886 84.4999C50.8415 84.4999 47.0429 85.9496 45.4111 88.0167C43.7792 85.9496 40.0207 84.4999 35.6335 84.4999C29.7617 84.4999 25 87.0905 25 90.2851C25 91.0637 25.2943 91.8153 25.8025 92.4999C27.3942 90.3925 31.1929 88.916 35.6335 88.916C39.7666 88.916 43.3245 90.2046 45.0767 92.0838C45.1569 92.218 45.2506 92.3657 45.3442 92.4999C45.3576 92.4731 45.3843 92.4596 45.3977 92.4462C45.4111 92.4731 45.4378 92.4865 45.4512 92.4999C45.5582 92.3657 45.6384 92.2314 45.7187 92.0838C47.4709 90.2046 51.0288 88.916 55.1618 88.916C59.2949 88.916 62.5719 90.0972 64.3909 91.8556C64.498 92.0704 64.6317 92.2851 64.7922 92.4999C64.819 92.4596 64.8591 92.4328 64.8858 92.3925C64.9126 92.4328 64.9527 92.4596 64.9795 92.4999C65.14 92.2986 65.2604 92.0838 65.3807 91.8556C67.2132 90.0972 70.6507 88.916 74.6099 88.916C79.0505 88.916 82.8358 90.3925 84.4409 92.4999C84.4542 92.4731 84.4676 92.4596 84.481 92.4328C84.4944 92.4596 84.5077 92.4731 84.5211 92.4999C86.1128 90.3925 89.9115 88.916 94.3521 88.916C98.7928 88.916 102.578 90.3925 104.183 92.4999C104.705 91.8153 104.986 91.0771 104.986 90.2851C104.986 87.0905 100.224 84.4865 94.3521 84.4865L94.3789 84.4999Z" fill="#101012"/>
<path d="M104.946 69.2248C104.491 67.4396 103.568 67.2383 101.227 66.6611C98.8865 66.0839 89.3764 57.3456 89.3764 57.3456L84.7886 54.0705C84.7886 54.0705 73.901 44.406 68.3501 41.4799C62.7993 38.5403 59.3484 40.3255 59.3484 40.3255L61.4216 42.5805L63.3209 45.8423C63.3209 45.8423 68.1227 46.5805 69.5807 47.3725C70.1692 47.6946 71.6539 49.2785 71.6539 49.2785L75.185 53.1174C75.185 53.1174 67.2667 52.3926 66.2368 52.5C65.2202 52.594 59.335 58.8893 57.9172 60.245C54.8408 63.2114 39.9806 55.896 35.8342 62.406C35.5801 62.8087 34.9247 66.3658 32.5572 68.0436C31.554 68.7684 29.1999 67.9094 28.2235 68.7013C27.314 69.4262 24.7994 73.7886 25.0134 75.0638C25.2274 76.3389 26.4178 76.1107 26.9395 77.2785C27.4611 78.4597 29.6814 79.5336 29.6814 79.5336C29.6814 79.5336 87.8115 79.9631 90.0987 79.1309C92.3859 78.2987 99.154 74.7148 101.588 73.0369C104.023 71.3591 105.32 70.755 104.932 69.2114L104.946 69.2248ZM81.0836 56.4866C81.7123 55.9631 84.5746 57.3456 87.4771 59.5738C90.3796 61.802 92.2121 64.0302 91.5834 64.5537C90.9548 65.0772 88.0924 63.6946 85.1899 61.4664C82.2874 59.2382 80.455 57.0101 81.0836 56.4866ZM40.1277 63.0369C42.3079 62.7819 84.1734 67.2248 84.1734 67.2248L36.4227 67.9631C36.4227 67.9631 37.9475 63.2919 40.1144 63.0369H40.1277ZM29.6413 73.9899C29.6413 73.9899 30.8451 70.7282 31.3801 70.7013C31.9152 70.6745 100.411 68.6476 100.492 69.3859C100.532 69.7752 29.6413 73.9899 29.6413 73.9899Z" fill="#101012"/>
</svg>
