<svg width="130" height="130" viewBox="0 0 130 130" fill="none" xmlns="http://www.w3.org/2000/svg">
<path d="M64.3351 67.4279C66.0865 67.4279 67.5062 66.0324 67.5062 64.3111C67.5062 62.5897 66.0865 61.1943 64.3351 61.1943C62.5837 61.1943 61.1639 62.5897 61.1639 64.3111C61.1639 66.0324 62.5837 67.4279 64.3351 67.4279Z" fill="#101012"/>
<path d="M91.2037 59.7501H87.6127C87.3053 58.3649 86.878 57.0238 86.3307 55.7344L92.0208 50.9966C93.2053 50.0092 93.3478 48.2703 92.3507 47.1061L89.4644 43.7535C88.4599 42.5893 86.6906 42.4493 85.5061 43.4293L80.5207 47.585C77.447 44.7998 73.6236 42.8104 69.3804 41.9336V37.7557C69.3804 36.2305 68.121 35 66.5766 35H62.1085C60.5567 35 59.3047 36.2379 59.3047 37.7557V42.0072C55.2339 42.8988 51.553 44.8219 48.5767 47.4819L43.5239 43.4514C42.3169 42.4936 40.5551 42.6704 39.5731 43.8567L36.7543 47.2608C35.7797 48.4471 35.9596 50.1787 37.1666 51.1439L42.7142 55.5723C42.137 56.9059 41.6797 58.3059 41.3648 59.7501H37.8038C36.252 59.7501 35 60.988 35 62.5058V66.8973C35 68.4226 36.2595 69.6531 37.8038 69.6531H41.3573C41.6872 71.1415 42.1595 72.5857 42.7667 73.9488L37.8638 77.1319C36.5668 77.9719 36.2145 79.6813 37.0691 80.956L39.5281 84.6181C40.3827 85.8928 42.122 86.2391 43.4189 85.3991L48.6592 81.995C51.6355 84.6254 55.2939 86.5191 59.3422 87.4033C59.3197 87.5507 59.2972 87.698 59.2972 87.8528V92.2443C59.2972 93.7695 60.5567 95 62.101 95H66.5691C68.121 95 69.3729 93.7621 69.3729 92.2443V87.8528C69.3729 87.7201 69.3504 87.5949 69.3354 87.4696C73.5262 86.6149 77.3046 84.6697 80.3633 81.9508L85.2362 85.4581C86.4882 86.357 88.2424 86.0917 89.1571 84.8612L91.7959 81.3171C92.7105 80.0866 92.4407 78.3624 91.1887 77.4635L86.2258 73.8898C86.818 72.5415 87.2828 71.1194 87.6052 69.6531H91.1962C92.748 69.6531 94 68.4152 94 66.8973V62.5058C94 60.9806 92.7405 59.7501 91.1962 59.7501H91.2037ZM81.3903 68.5699C79.5761 68.5699 78.0393 67.4279 77.477 65.8363L77.3421 65.8805H70.6174C70.0177 68.1794 68.1585 69.9847 65.7895 70.5152V76.1666C67.4463 76.7045 68.6382 78.2298 68.6382 80.035C68.6382 82.2897 66.779 84.117 64.485 84.117C62.191 84.117 60.3318 82.2897 60.3318 80.035C60.3318 78.3182 61.4188 76.8445 62.9482 76.2477V70.5299C60.5492 70.0141 58.6525 68.2015 58.0527 65.8731H51.4105C50.8333 67.4352 49.3039 68.5552 47.5122 68.5552C45.2182 68.5552 43.359 66.7279 43.359 64.4732C43.359 62.2185 45.2182 60.3911 47.5122 60.3911C49.3039 60.3911 50.8258 61.5111 51.4105 63.0732H57.9628C58.4501 60.5753 60.4292 58.6006 62.9482 58.0628V52.4113C61.4188 51.8144 60.3318 50.3408 60.3318 48.624C60.3318 46.3693 62.191 44.5419 64.485 44.5419C66.779 44.5419 68.6382 46.3693 68.6382 48.624C68.6382 50.4292 67.4463 51.9544 65.7895 52.4923V58.0775C68.2784 58.6375 70.2126 60.5974 70.6999 63.0732H77.3421C77.3421 63.0732 77.507 63.0732 77.4995 63.0585C78.0842 61.4964 79.6061 60.3838 81.3978 60.3838C83.6919 60.3838 85.5511 62.2111 85.5511 64.4658C85.5511 66.7205 83.6919 68.5478 81.3978 68.5478L81.3903 68.5699Z" fill="#101012"/>
</svg>
