<svg width="130" height="130" viewBox="0 0 130 130" fill="none" xmlns="http://www.w3.org/2000/svg">
<path d="M90 43.0114C90 41.4179 89.3313 40.4769 88.07 39.7485C86.0185 38.5647 83.7542 38.0031 81.4747 37.5175C77.5539 36.698 73.5724 36.3034 69.5757 36.1212C61.719 35.7874 53.8927 36.0605 46.188 37.8362C44.3188 38.2611 42.5104 38.8379 40.8388 39.8243C39.6383 40.5528 39 41.4786 39 43.0114C39.0608 54.1814 39.0304 65.3514 39.0304 76.5214C39.0304 81.1351 39.0304 85.764 39.0456 90.3777C39.0456 90.7875 39.1976 91.2731 39.4407 91.5767C39.9878 92.2444 40.7932 92.1685 41.5226 91.4097C43.4222 89.4519 45.6865 88.086 48.27 87.2817C50.2303 86.6746 52.2363 86.1586 54.2271 85.6426C55.7163 85.248 56.4458 84.3526 56.4458 82.8349C56.4458 81.7118 56.4458 80.5736 56.4458 79.405C57.1448 79.3595 57.7527 79.2988 58.3454 79.2836C62.3573 79.1318 65.6094 80.5432 67.8433 83.9732C68.8766 85.5667 69.5757 87.312 69.9404 89.1788C70.5483 92.1989 72.9797 94.1415 76.0495 93.9897C78.7849 93.8532 81.4747 93.3675 84.0733 92.4873C85.7449 91.9105 87.3254 91.1821 88.6475 89.9679C89.5137 89.1636 89.9696 88.2226 89.9696 86.9781C89.9392 72.3175 89.924 57.6569 89.9696 42.9963L90 43.0114ZM41.4771 45.3183C45.337 46.9725 49.3641 47.6251 53.4216 48.0956C58.4669 48.6723 63.5274 48.8089 68.6031 48.6116C73.2077 48.4295 77.7971 48.126 82.2801 47.0029C83.8302 46.6083 85.3346 46.0468 86.8543 45.5611C87.0518 45.5004 87.2646 45.4093 87.5381 45.3031C87.5381 45.9253 87.5837 46.4869 87.5229 47.0181C87.5077 47.2002 87.2646 47.4278 87.067 47.5037C85.4714 48.1108 83.8909 48.8089 82.2497 49.2339C78.025 50.3417 73.6788 50.6605 69.3173 50.8881C64.6216 51.1158 59.941 50.9792 55.2604 50.5846C51.4005 50.2507 47.5861 49.674 43.9237 48.3536C43.5742 48.2322 43.2247 48.0804 42.8751 47.9438C41.2491 47.2609 41.2035 47.185 41.4771 45.3335V45.3183ZM53.4368 83.0322C53.3305 83.1992 50.4431 84.2615 50.2911 84.2615C50.1392 84.2615 47.4038 85.2025 45.3218 86.189C43.4678 87.054 42.2825 87.6763 42.2825 87.6763L42.556 76.4759C42.8296 76.5821 44.638 77.599 46.9327 78.5551C49.2274 79.5112 53.452 80.3156 53.452 80.3156C53.452 80.3156 53.5584 82.8804 53.452 83.0322H53.4368ZM52.4946 73.4861C49.4553 73.4861 46.8263 70.8757 46.8415 67.7493C46.8719 64.5015 49.4401 62.0126 52.5858 62.0126C55.6859 62.0126 58.2846 64.6381 58.2846 67.7493C58.2846 70.9213 55.7163 73.4709 52.4794 73.4709L52.4946 73.4861ZM57.1904 55.3652C52.8897 55.0769 48.6043 54.5305 44.5012 53.1039C43.6654 52.8155 42.86 52.4209 42.0393 52.0871C41.5682 51.9049 41.3403 51.6014 41.4011 51.0702C41.4467 50.6908 41.4011 50.281 41.4011 49.932C42.9511 50.4176 44.4252 50.9336 45.9449 51.3586C48.969 52.2085 52.0843 52.5879 55.1996 52.8762C60.2297 53.3315 65.275 53.3619 70.3203 53.1191C75.3656 52.8762 80.3805 52.3602 85.213 50.7515C85.9729 50.4935 86.7023 50.1748 87.4774 49.8713C87.5077 49.9472 87.5077 49.9623 87.5077 49.9775C87.5077 52.2995 87.9788 51.7228 85.8969 52.6334C82.4169 54.1359 78.6937 54.7126 74.9553 55.1072C69.0286 55.7446 63.1019 55.7446 57.1752 55.35L57.1904 55.3652ZM78.4961 86.0068C77.8427 86.2497 77.5235 84.4133 76.8701 82.6528C76.2166 80.9075 74.8033 79.3291 75.4568 79.0863C76.1102 78.8435 78.5873 80.0121 79.2408 81.7726C79.8942 83.5179 79.1496 85.764 78.4961 86.0068ZM87.994 85.9917C87.219 86.6746 84.0581 88.1923 82.0521 88.769C78.9368 89.6644 76.6573 90.5447 75.5176 90.1197C74.3626 89.6948 74.1043 88.5717 73.8915 87.7521C72.9949 84.2767 72.9645 83.7455 71.4297 81.6208C69.6517 79.1622 66.506 78.7979 66.6731 78.206C66.7643 77.8722 67.8129 77.857 68.5423 77.9329C71.7336 78.2971 72.7518 80.4218 73.4508 81.4538C75.396 84.3829 75.0921 87.5245 76.4902 88.1771C77.6603 88.7235 80.2893 87.9039 84.3164 86.4318C85.7601 85.9006 88.8299 85.2632 88.0092 85.9765L87.994 85.9917Z" fill="#101012"/>
</svg>
