<svg width="130" height="130" viewBox="0 0 130 130" fill="none" xmlns="http://www.w3.org/2000/svg">
<path d="M78.858 96.6836C78.508 97.2743 78.2389 97.8517 77.862 98.335C77.1217 99.2749 76.0854 99.6777 74.9144 99.6508C74.4029 99.6374 74.1741 99.812 73.9722 100.255C73.2454 101.839 71.6707 102.632 69.9479 102.35C69.7729 102.323 69.5845 102.403 69.4095 102.47C68.4 102.873 67.431 103.424 66.3811 103.679C65.1294 103.974 64.0123 103.477 63.0836 102.524C61.8453 103.612 60.4186 103.84 58.9381 103.142C58.3997 102.887 58.0228 102.323 57.5517 101.933C57.3768 101.786 57.148 101.584 56.9461 101.584C55.5059 101.544 54.483 100.9 53.81 99.6374C53.7023 99.4494 53.4332 99.2346 53.2313 99.2346C51.7776 99.1809 50.8489 98.3619 50.0952 97.2206C49.9606 97.0058 49.7184 96.7641 49.4895 96.7104C47.1341 96.1197 46.017 94.4414 46.4881 92.0649C46.5823 91.5681 46.4746 91.313 46.0978 91.0042C45.3171 90.3463 44.5903 89.6078 43.8097 88.8694C42.8137 89.7689 41.7369 89.6615 40.5794 89.0439C39.045 88.2249 37.4568 87.473 35.909 86.6943C34.6707 86.0766 34.2131 84.734 34.8188 83.3779C35.7071 81.4042 36.6493 79.4574 37.5914 77.4971C38.8028 74.9595 40.0276 72.4219 41.2389 69.8843C41.8446 68.6088 43.0156 68.0449 44.3346 68.5685C46.1785 69.3069 48.009 70.1125 49.8126 70.9181C50.674 71.3075 51.0374 71.9654 51.1854 73.0529C52.5314 73.6571 53.8639 73.1469 55.1963 72.959C56.3 72.8113 57.4037 72.5427 58.5074 72.489C59.288 72.4487 60.0956 72.6636 60.8897 72.7173C61.2396 72.7441 61.6569 72.7173 61.9395 72.5427C63.6085 71.4686 65.3851 70.6496 67.404 70.7973C68.7769 70.8913 70.1363 71.2404 71.4688 71.576C72.8147 71.9117 74.1337 72.3413 75.4393 72.7844C76.7179 73.2275 77.8889 72.7038 79.0464 72.5293C79.1003 71.952 79.006 71.4015 79.2214 70.9987C79.4906 70.5019 79.9347 70.0051 80.4193 69.7366C82.1152 68.7967 83.8649 67.9374 85.6146 67.0781C87.0548 66.3665 88.1719 66.7693 88.8853 68.206C91.133 72.6904 93.3942 77.1883 95.6284 81.6727C96.3552 83.1228 96.0187 84.2909 94.592 85.0697C92.9635 85.9558 91.2945 86.7748 89.6524 87.6341C88.791 88.0772 87.97 87.9564 87.149 87.4864C85.7896 88.7888 84.4437 90.0509 83.1381 91.3667C82.9631 91.5412 83.0035 91.9843 83.0439 92.2931C83.2996 94.4816 81.9133 96.3479 79.7598 96.6836C79.4368 96.7373 79.1003 96.6836 78.8311 96.6836H78.858ZM71.8456 98.6707C71.6572 98.5096 71.4688 98.3216 71.2669 98.1605C70.2305 97.3818 69.1807 96.6299 68.1443 95.8511C67.6463 95.4752 67.1483 95.0858 66.7041 94.6562C66.26 94.24 66.085 93.7163 66.3407 93.1256C66.5965 92.5482 67.0945 92.3737 67.6732 92.4677C68.0097 92.5214 68.3731 92.6422 68.6423 92.8436C70.2843 94.0788 71.8995 95.3678 73.555 96.5896C73.8915 96.8313 74.3625 96.979 74.7932 97.0058C75.3989 97.0461 75.9373 96.7239 76.045 96.1197C76.0854 95.8646 75.7354 95.4618 75.4528 95.2469C73.8376 93.9848 72.1687 92.763 70.5535 91.5009C70.2305 91.2458 69.9344 90.9102 69.7325 90.5611C69.4364 90.024 69.5172 89.4601 69.9882 89.0305C70.4593 88.6008 70.9977 88.574 71.5361 88.8962C71.886 89.0976 72.1956 89.3527 72.5186 89.5944C74.2952 90.9505 76.0719 92.3065 77.862 93.6492C78.3465 94.0251 78.9388 94.24 79.4906 93.958C79.8809 93.7566 80.2847 93.3404 80.4058 92.9376C80.4866 92.6556 80.177 92.1857 79.9213 91.8769C79.6925 91.5949 79.3156 91.4204 79.0195 91.1921C75.1432 88.198 71.24 85.2308 67.3906 82.2098C66.6234 81.6056 65.9639 81.3237 65.0621 81.807C64.5776 82.0621 63.945 82.1158 63.5681 82.4649C62.8009 83.1362 62.0876 83.9016 61.4819 84.7206C60.4859 86.0766 59.1399 86.3586 57.619 86.1438C55.9366 85.9155 54.9002 84.8414 54.6176 83.1899C54.3753 81.7936 54.7926 80.5181 55.4655 79.3365C56.2193 77.9939 57.1076 76.7184 57.9017 75.4697C56.7711 75.6308 55.479 75.7517 54.2138 76.0068C52.8813 76.2753 51.6027 76.2082 50.324 75.6845C48.6416 79.2426 46.9861 82.7469 45.3575 86.2109C46.3131 87.1776 47.2418 88.1309 48.1705 89.0708C48.332 88.9231 48.4666 88.7351 48.6551 88.6143C49.4223 88.1443 50.1625 87.4864 51.0105 87.285C52.4102 86.9494 53.5408 87.7013 54.2811 89.1647C54.4561 89.5138 54.6176 89.7018 55.0752 89.6615C56.4615 89.5407 57.4979 90.1583 58.1709 91.3533C58.3862 91.7292 58.5343 92.1588 58.7092 92.5885C60.5397 92.6288 61.8318 93.3672 62.2222 95.3007C62.2356 95.3946 62.3971 95.502 62.4913 95.5289C63.3124 95.7034 63.9719 96.3345 64.8871 96.2808C65.1428 96.2674 65.4255 96.4822 65.6543 96.6433C67.0137 97.5429 68.3462 98.4962 69.7191 99.3689C70.6074 99.9328 71.3746 99.6508 71.8726 98.6573L71.8456 98.6707ZM80.2847 74.8789C80.0155 74.9864 79.8271 75.0401 79.6386 75.1206C77.687 75.9933 75.7219 76.047 73.6896 75.3489C72.1283 74.8118 70.5401 74.3553 68.9249 73.9659C68.1443 73.778 67.2291 73.6034 66.4888 73.8048C65.2909 74.1405 64.0661 74.6507 63.0432 75.3489C61.6569 76.2887 60.2975 77.3628 59.1803 78.5981C58.3458 79.5111 57.8882 80.7732 57.2556 81.8741C56.9595 82.3978 57.0268 82.8543 57.5517 83.2034C58.0901 83.5659 58.7496 83.5256 59.1399 83.096C60.0417 82.1292 60.93 81.1491 61.8453 80.2093C62.0741 79.981 62.3568 79.7528 62.6529 79.6588C63.8642 79.256 65.1025 78.9472 66.3138 78.5309C66.9733 78.3027 67.4848 78.4772 67.9828 78.8666C71.065 81.2834 74.1472 83.6867 77.2294 86.0901C78.535 87.1105 79.8271 88.1175 81.1461 89.1513C82.5459 87.8892 83.8784 86.6808 85.2378 85.4859C85.5742 85.1905 85.4396 84.9622 85.2916 84.6669C84.5379 83.2168 83.7841 81.7802 83.0439 80.3167C82.1286 78.5041 81.2134 76.6915 80.2847 74.8387V74.8789ZM82.4247 72.1265C84.5513 76.3559 86.651 80.5449 88.7641 84.7608C90.137 84.0224 91.4022 83.3242 92.7077 82.626C90.5811 78.3967 88.4815 74.2479 86.3683 70.0588C85.0359 70.757 83.7572 71.4283 82.4247 72.1265ZM41.8715 86.2109C43.877 81.9279 45.869 77.6985 47.8744 73.4289C46.5285 72.8247 45.2364 72.2473 43.9443 71.67C42.9079 73.7914 41.8984 75.8456 40.9024 77.9133C39.893 79.9944 38.8835 82.089 37.8741 84.1969C39.1931 84.8683 40.4852 85.5127 41.8715 86.2109ZM52.1276 91.1116C52.1276 91.1116 52.1276 90.9773 52.1007 90.8833C51.8584 89.9569 51.2931 89.7824 50.6201 90.4403C50.2567 90.8028 49.8664 91.1653 49.6241 91.6084C49.3684 92.0649 49.1934 92.5885 49.1531 93.0987C49.1127 93.6492 49.7991 94.1862 50.2164 94.0386C50.822 93.8372 52.1411 91.8366 52.1276 91.1116ZM52.4237 95.9451C52.6121 96.3613 52.9352 96.6164 53.4466 96.4956C54.3484 96.2674 55.9904 94.2534 55.9635 93.3135C55.9635 93.0316 55.6809 92.6825 55.4386 92.4945C55.3175 92.4005 54.8599 92.5482 54.7387 92.7228C53.9446 93.77 53.2043 94.8576 52.4237 95.9585V95.9451ZM59.5976 95.8377C59.4899 95.7034 59.3688 95.4483 59.1669 95.3141C59.0323 95.2335 58.7092 95.2604 58.6016 95.3678C57.8075 96.1465 57.0672 96.979 56.2731 97.7577C55.977 98.0531 56.0039 98.2679 56.2462 98.5499C56.65 99.0198 57.0941 99.0735 57.5787 98.6841C57.8075 98.4962 58.0363 98.3216 58.2247 98.1068C58.7496 97.4623 59.4226 96.8984 59.5976 95.8511V95.8377ZM59.6379 100.577C60.0417 100.698 60.3513 100.9 60.6339 100.859C61.2127 100.779 62.3567 99.4494 62.3702 98.8721C62.3702 98.6707 62.2222 98.429 62.0741 98.2813C61.9933 98.2142 61.6703 98.2813 61.5761 98.3753C60.957 99.0466 60.3782 99.7314 59.6379 100.577ZM64.9544 99.5166C64.9275 100.08 64.3084 100.483 64.9006 100.967C65.3582 101.343 66.26 101.289 66.8387 100.819C66.2331 100.403 65.6408 99.9865 64.9679 99.5031L64.9544 99.5166Z" fill="#101012"/>
<path d="M62.8144 45.7971C60.6878 49.8384 55.1964 49.7713 53.1102 45.6225C52.0873 47.6097 50.4856 48.7778 48.2782 48.7912C46.0305 48.8046 44.4423 47.6231 43.4194 45.5554C42.8541 46.6161 42.1811 47.4888 41.1717 48.0393C39.2066 49.1134 37.255 49.0866 35.411 47.811C33.5806 46.549 32.6922 44.7095 33.096 42.5344C33.4325 40.7621 34.1728 39.057 34.7784 37.325C35.3168 35.8078 35.9225 34.3174 36.4609 32.8136C37.0262 31.2025 37.6588 30.7057 39.3681 30.7057C43.1771 30.7057 46.9861 30.7057 50.7951 30.7057C55.9905 30.7057 61.1993 30.7057 66.3946 30.7057C66.7984 30.7057 67.2022 30.7057 67.606 30.7728C68.5077 30.8802 69.1403 31.3502 69.4634 32.2095C70.5805 35.217 71.738 38.2245 72.7878 41.2455C73.9992 44.7095 71.9264 48.2541 68.3731 48.7509C66.2735 49.0463 64.5776 48.2004 63.3259 46.4953C63.1913 46.3207 63.0836 46.1193 62.9625 45.9313C62.9355 45.8911 62.8952 45.8776 62.8144 45.8105V45.7971Z" fill="#101012"/>
<path d="M84.9147 21.7637C88.5488 21.8979 91.779 23.4823 93.7307 27.1611C95.265 30.0478 95.265 33.0419 93.8518 35.9823C91.9944 39.8223 89.5448 43.2864 87.0817 46.7504C86.6241 47.3814 86.1665 48.0259 85.6281 48.5898C84.8071 49.4625 84.0399 49.4088 83.3265 48.469C80.527 44.723 77.8216 40.9233 75.6008 36.8014C73.5281 32.9479 73.9588 28.4098 76.7314 25.2948C78.7772 22.9586 81.3749 21.7637 84.9147 21.7637ZM89.7736 31.9275C89.8005 29.0543 87.5662 26.7852 84.6455 26.7449C81.6845 26.7046 79.4098 28.7723 79.3022 31.7798C79.1945 34.6263 81.6576 37.0028 84.5513 37.0296C87.4182 37.0565 89.7332 34.7874 89.7601 31.9141L89.7736 31.9275Z" fill="#101012"/>
<path d="M35.586 50.5368C36.8512 50.7248 38.0491 50.9127 39.3412 51.1141V63.0503H66.758V51.1141C68.0905 50.9127 69.3018 50.7248 70.5805 50.5368C70.5805 50.5637 70.6074 50.7248 70.6074 50.8859C70.6074 55.4912 70.6074 60.0965 70.6074 64.7018C70.6074 66.1921 69.921 66.8634 68.427 66.8634C58.2247 66.8634 48.036 66.8634 37.8337 66.8634C36.2724 66.8634 35.586 66.1787 35.586 64.6212C35.586 60.1233 35.586 55.6389 35.586 51.141C35.586 50.9127 35.586 50.6979 35.586 50.5502V50.5368Z" fill="#101012"/>
</svg>
