<svg width="130" height="130" viewBox="0 0 130 130" fill="none" xmlns="http://www.w3.org/2000/svg">
<path d="M64.7299 52.443C41.8695 52.443 64.7299 84.8157 64.7299 84.8157C64.7299 84.8157 87.5903 52.443 64.7299 52.443ZM59.7098 62.7991C59.7098 59.991 61.9595 57.7107 64.7299 57.7107C67.5002 57.7107 69.7499 59.991 69.7499 62.7991C69.7499 65.6072 67.5002 67.8875 64.7299 67.8875C61.9595 67.8875 59.7098 65.6072 59.7098 62.7991Z" fill="#101012"/>
<path d="M85.9299 41.5495C86.0183 41.5495 86.0969 41.5296 86.1853 41.5196L88.7789 45.194C88.6512 45.2538 88.5235 45.3235 88.4056 45.423L78.9058 53.7477C78.2672 54.3054 78.1985 55.2812 78.7486 55.9285C79.2987 56.5757 80.2615 56.6454 80.9 56.0878L89.5353 48.5299C89.7809 50.2824 91.2447 51.6267 93.0425 51.6267C95.0073 51.6267 96.5988 50.0136 96.5988 48.022C96.5988 46.0305 95.0073 44.4173 93.0425 44.4173C92.7085 44.4173 92.4039 44.477 92.0994 44.5667L88.8673 39.9761C89.2603 39.3986 89.496 38.6916 89.496 37.9348C89.496 35.9432 87.9045 34.3301 85.9398 34.3301C83.975 34.3301 82.3835 35.9432 82.3835 37.9348C82.3835 39.9264 83.975 41.5395 85.9398 41.5395L85.9299 41.5495Z" fill="#101012"/>
<path d="M38.7552 67.5891H41.9971C42.5669 68.804 43.7753 69.6404 45.1899 69.6404C47.1547 69.6404 48.7462 68.0272 48.7462 66.0357C48.7462 64.0441 47.2923 62.6003 45.4552 62.4609L44.5219 56.0879C45.1113 55.4406 45.4846 54.5843 45.4846 53.6383C45.4846 51.8957 44.2665 50.4518 42.6553 50.1132L43.2743 46.6579L43.3725 46.7276C43.736 46.9964 44.237 46.9168 44.5022 46.5583L46.8109 43.3917C47.0761 43.0233 46.9975 42.5155 46.6439 42.2466L42.8027 39.3688C42.8027 39.3091 42.8223 39.2493 42.8223 39.1796C42.8223 36.501 40.6807 34.3401 38.0479 34.3401C35.4151 34.3401 33.2734 36.5109 33.2734 39.1796C33.2734 41.8483 35.4151 44.0191 38.0479 44.0191C38.5391 44.0191 39.0008 43.9195 39.4527 43.7801L40.553 44.6066L39.384 51.1588C38.7749 51.806 38.4016 52.6724 38.4016 53.6383C38.4016 55.5103 39.8162 57.0339 41.6238 57.2032L42.5669 63.6458C42.3508 63.8948 42.1641 64.1736 42.0168 64.4823H38.7749C38.1265 62.4409 36.2501 60.9473 34.0201 60.9473C31.2497 60.9473 29 63.2276 29 66.0357C29 68.8438 31.2497 71.1241 34.0201 71.1241C36.2501 71.1241 38.1265 69.6304 38.7749 67.5891H38.7552ZM31.5935 66.0456C31.5935 64.7014 32.6742 63.606 34.0004 63.606C35.3266 63.606 36.4073 64.7014 36.4073 66.0456C36.4073 67.3899 35.3266 68.4853 34.0004 68.4853C32.6742 68.4853 31.5935 67.3899 31.5935 66.0456Z" fill="#101012"/>
<path d="M60.977 43.9891L59.415 46.1998C59.1399 46.5881 59.2284 47.1358 59.6115 47.4146L60.702 48.2013C61.0851 48.4801 61.6254 48.3905 61.9005 48.0021L63.7769 45.3434C63.8456 45.2438 63.8947 45.1343 63.9144 45.0248C64.1011 45.0447 64.2877 45.0546 64.4744 45.0546C64.8084 45.0546 65.1326 45.0248 65.4469 44.975L67.1858 47.4445C67.4609 47.8328 68.0012 47.9225 68.3843 47.6436L69.4748 46.857C69.8579 46.5782 69.9463 46.0305 69.6712 45.6421L68.3254 43.7402C68.738 43.4315 69.1113 43.073 69.4355 42.6747L72.5792 43.8697C72.7855 45.2339 73.9447 46.2894 75.3495 46.2894C76.9017 46.2894 78.169 45.0148 78.169 43.4315C78.169 41.8482 76.9115 40.5736 75.3495 40.5736C74.7895 40.5736 74.2689 40.7429 73.8268 41.0317L70.7519 39.8666C70.8403 39.4285 70.8894 38.9804 70.8894 38.5223C70.8894 34.9176 68.011 32 64.4547 32C60.8984 32 58.02 34.9176 58.02 38.5223C58.02 40.8126 59.1891 42.8241 60.9476 43.9891H60.977ZM64.4842 35.0869C66.3507 35.0869 67.8735 36.6204 67.8735 38.5223C67.8735 40.4243 66.3606 41.9578 64.4842 41.9578C62.6078 41.9578 61.0949 40.4243 61.0949 38.5223C61.0949 36.6204 62.6078 35.0869 64.4842 35.0869Z" fill="#101012"/>
<path d="M95.253 59.6028C93.3373 59.6028 91.6476 60.5488 90.5964 62.0126C90.4785 61.9628 90.3606 61.913 90.2329 61.8931L87.4134 61.3753C87.1187 59.7821 85.7434 58.5772 84.0831 58.5772C82.2067 58.5772 80.6938 60.1206 80.6938 62.0126C80.6938 63.9046 82.2165 65.448 84.0831 65.448C85.0557 65.448 85.93 65.0298 86.5489 64.3527L89.5059 64.8904C89.4863 65.0696 89.4765 65.2588 89.4765 65.4381C89.4765 67.101 90.1641 68.5947 91.2644 69.6602L87.7376 79.2097C87.6296 79.5184 87.6197 79.837 87.6885 80.1258C87.6885 80.1258 87.6689 80.1258 87.659 80.1258C86.9026 80.1258 85.9005 80.773 84.8494 81.6593L79.623 76.3617C79.0237 75.7543 78.061 75.7543 77.4617 76.3617C76.8625 76.9692 76.8625 77.945 77.4617 78.5525L82.6488 83.8102C82.2264 84.2682 81.8138 84.7263 81.4404 85.1744L76.1846 79.847C75.5854 79.2395 74.6226 79.2395 74.0233 79.847C73.4241 80.4544 73.4241 81.4302 74.0233 82.0377L79.4658 87.5543C79.4658 87.5543 79.4855 87.5742 79.4953 87.5742C79.3872 87.7236 79.3086 87.8231 79.3086 87.8231C79.2792 87.9227 78.9157 92.324 81.6075 94.1961C84.2992 96.0682 88.9361 95.9586 88.9361 95.9586L83.1007 88.8089L87.9145 83.9296L94.2509 90.3524C94.2509 90.3524 95.3709 86.3593 94.2509 84.1686C93.5141 82.7248 92.0307 81.4302 90.3508 80.7133C90.449 80.5938 90.5276 80.4544 90.5866 80.2951L93.966 71.1439C94.3786 71.2335 94.8011 71.2932 95.2333 71.2932C98.4163 71.2932 101 68.6744 101 65.448C101 62.2217 98.4163 59.6028 95.2333 59.6028H95.253ZM95.253 68.296C93.7008 68.296 92.4433 67.0214 92.4433 65.448C92.4433 63.8747 93.7008 62.6001 95.253 62.6001C96.8052 62.6001 98.0626 63.8747 98.0626 65.448C98.0626 67.0214 96.8052 68.296 95.253 68.296Z" fill="#101012"/>
<path d="M62.3131 90.7906C60.8297 90.7906 59.5624 91.7067 59.0319 93.0112H57.2341C56.7037 91.7067 55.4364 90.7906 53.9529 90.7906C51.9881 90.7906 50.3967 92.4037 50.3967 94.3953C50.3967 96.3868 51.9881 98 53.9529 98C55.4364 98 56.7037 97.0839 57.2341 95.7794H59.0319C59.5624 97.0839 60.8297 98 62.3131 98C64.2779 98 65.8694 96.3868 65.8694 94.3953C65.8694 92.4037 64.2779 90.7906 62.3131 90.7906Z" fill="#101012"/>
<path d="M55.6328 82.695C56.4089 82.0179 56.4973 80.823 55.8194 80.0264C55.1416 79.2297 53.9725 79.1501 53.1866 79.8372L45.3864 86.6682C44.3155 85.4334 42.9402 84.1688 41.7908 83.173L45.8972 79.5783C46.2018 79.648 46.5161 79.6977 46.8403 79.6977C49.0704 79.6977 50.878 77.8655 50.878 75.6051C50.878 73.3447 49.0704 71.5125 46.8403 71.5125C44.6103 71.5125 42.8027 73.3447 42.8027 75.6051C42.8027 76.113 42.9009 76.6009 43.0777 77.049L38.205 81.3209C36.7511 81.4105 34.4719 81.8685 33.2537 83.6609C31.4068 86.3894 31.5149 91.0894 31.5149 91.0894L38.5685 85.1745L43.3823 90.0538L37.0458 96.4766C37.0458 96.4766 40.9852 97.6118 43.1465 96.4766C45.2194 95.3912 46.9877 92.7125 47.1056 90.1136C47.1645 90.0737 47.2333 90.0339 47.2922 89.9742L55.623 82.6751L55.6328 82.695Z" fill="#101012"/>
<path d="M74.7503 51.5866C75.3004 52.2339 76.2632 52.3036 76.9017 51.7459L82.7273 46.6476C83.3659 46.0899 83.4347 45.1141 82.8845 44.4668C82.3344 43.8196 81.3716 43.7499 80.7331 44.3075L74.9075 49.4059C74.2689 49.9635 74.2001 50.9394 74.7503 51.5866Z" fill="#101012"/>
<path d="M46.3589 50.2726L50.1314 54.0964C50.544 54.5146 51.212 54.5146 51.6246 54.0964C52.0372 53.6782 52.0372 53.001 51.6246 52.5828L47.8522 48.759C47.4396 48.3408 46.7716 48.3408 46.3589 48.759C45.9463 49.1772 45.9463 49.8544 46.3589 50.2726Z" fill="#101012"/>
<path d="M52.5088 51.6868C52.9214 52.105 53.5894 52.105 54.0021 51.6868C54.4147 51.2686 54.4147 50.5914 54.0021 50.1732L50.2296 46.3494C49.817 45.9312 49.149 45.9312 48.7364 46.3494C48.3238 46.7676 48.3238 47.4448 48.7364 47.863L52.5088 51.6868Z" fill="#101012"/>
</svg>
