<svg width="130" height="130" viewBox="0 0 130 130" fill="none" xmlns="http://www.w3.org/2000/svg">
<path d="M63.8122 43.8237L65.1434 39.7802C65.1434 39.7802 62.1867 39.8494 62.0045 37.9107C61.8224 35.9721 62.9014 34.9612 62.9014 34.9612L66.3345 35.0166V33.7703C66.0963 33.7703 60.365 30.9176 57.3522 32.4547C54.3394 34.0057 54.886 38.7693 54.886 38.7693L63.7982 43.8237H63.8122Z" fill="#101012"/>
<path d="M50.9063 52.8939L57.6045 48.5319C57.6045 48.5319 60.2249 45.7624 59.8746 45.0838C59.5242 44.4191 53.7089 40.3064 53.7089 40.3064C53.7089 40.3064 50.1216 39.3786 47.9916 42.1066C45.8616 44.8346 42.7367 49.1966 42.7367 49.1966C42.7367 49.1966 45.9597 49.6536 48.2158 51.4538C50.4719 53.254 50.8923 52.8939 50.8923 52.8939H50.9063Z" fill="#101012"/>
<path d="M53.0643 54.6389C52.7279 54.8189 51.3267 55.359 51.3267 55.359C51.3267 55.359 52.826 57.9901 53.4006 58.8071C53.9751 59.6241 54.998 60.7735 54.998 60.7735C54.998 60.7735 56.2732 61.7151 56.3153 61.8813C56.3573 62.0475 56.3153 63.2799 56.3153 63.2799L58.9637 61.1058C58.9637 61.1058 59.3561 59.998 58.235 58.4747C57.114 56.9515 54.0452 54.6389 54.0452 54.6389H53.0643Z" fill="#101012"/>
<path d="M61.1778 53.8079C62.7472 54.1679 63.616 52.8247 63.616 52.8247L62.537 51.4399L57.4643 50.4152L55.1102 51.8415L60.2389 52.2431C60.2389 52.2431 59.6083 53.4201 61.1778 53.794V53.8079Z" fill="#101012"/>
<path d="M61.5141 44.71L59.3701 48.1857C59.3701 48.1857 60.0848 48.6012 60.6032 48.9474C61.1217 49.2936 65.9842 50.0136 65.9842 50.0136L74.448 51.4815V49.6536C74.448 49.6536 72.1219 47.8811 69.9779 48.1857C67.8339 48.4904 63.8963 47.1195 63.8963 47.1195L61.5141 44.71Z" fill="#101012"/>
<path d="M68.9269 51.8832C68.5065 52.5479 66.9931 52.1463 66.9931 52.1463L67.6658 53.3372C67.6658 53.3372 69.6416 53.7527 72.5703 54.6528C75.499 55.5529 75.541 56.8961 75.541 56.8961L87.8584 57.6716L79.773 53.8081L74.5601 52.4787C74.5601 52.4787 69.3473 51.2324 68.9269 51.8971V51.8832Z" fill="#101012"/>
<path d="M101.815 57.242C101.815 57.242 92.2725 52.423 89.0495 51.4121C85.8265 50.4012 83.2061 50.2489 83.2061 50.2489L81.9309 50.5536L80.5437 52.0768C80.5437 52.0768 90.7451 57.6021 90.9973 57.4913C91.2495 57.3943 101.815 57.242 101.815 57.242Z" fill="#101012"/>
<path d="M106.37 56.3834C106.37 56.3834 98.9427 52.326 95.9719 51.4674C93.0012 50.6089 90.605 50.2627 90.605 50.2627C90.9973 50.415 103.889 56.3972 103.889 56.3972H106.384L106.37 56.3834Z" fill="#101012"/>
<path d="M73.8595 56.8267L66.2925 57.5052L62.6911 61.6318L62.3268 62.0473L64.653 63.1689C64.653 63.1689 66.2645 61.0779 67.7778 60.2747C69.3053 59.4854 74.9385 58.1007 74.9385 58.1007L73.8595 56.8405V56.8267Z" fill="#101012"/>
<path d="M87.1157 61.7427C95.4254 61.1473 96.3783 59.5271 96.3783 59.5271H78.5538C78.5538 59.5271 74.8404 60.9534 74.6582 60.898L75.3308 61.4381C75.3308 61.4381 78.792 62.3382 87.1157 61.7427Z" fill="#101012"/>
<path d="M65.9001 63.1552C65.9001 63.1552 66.5588 62.7398 67.96 63.7092C69.3613 64.6785 70.7346 66.7972 70.7346 66.7972C70.7346 66.7972 73.0608 63.9723 73.327 63.8753C73.5933 63.7922 67.7779 61.9366 67.7779 61.9366L65.9001 63.1414V63.1552Z" fill="#101012"/>
<path d="M55.8388 66.8109C56.5955 66.7278 60.0427 66.4093 60.0427 66.4093C60.0427 66.4093 63.0835 63.5844 63.1676 63.1551C63.2517 62.7258 61.0657 62.255 61.0657 62.255C61.0657 62.255 58.4733 64.7337 57.4363 65.5646C56.4134 66.4093 55.1662 65.5646 55.1662 65.5646C55.1662 65.5646 55.0681 66.894 55.8248 66.7971L55.8388 66.8109Z" fill="#101012"/>
<path d="M47.5992 67.0742C48.9865 67.3789 48.3139 64.7755 48.3139 64.5401C48.3139 64.3047 46.4361 63.5431 46.1278 63.1692L43.8858 63.9031C43.8858 63.9031 46.2119 66.7696 47.5992 67.0881V67.0742Z" fill="#101012"/>
<path d="M73.327 77.1829C86.8635 74.2333 113.866 63.8891 113.993 63.9168C114.119 63.9445 112.605 61.3134 111.849 60.7318C110.812 59.9425 106.958 58.9593 106.958 58.9593H103.847L98.8586 60.9672C98.8586 60.9672 90.9693 63.2936 87.6482 64.0414C84.3272 64.7892 74.6582 65.1354 74.6582 65.1354L65.3396 70.896C65.3396 70.896 68.4225 67.8357 68.7448 67.5726C69.0671 67.3233 68.3384 66.1601 68.3384 66.1601L64.4007 64.6922C64.4007 64.6922 60.4631 67.7526 58.8516 68.265C57.9408 68.5558 54.984 68.5696 52.5598 68.5281C52.8541 65.8139 52.9381 62.9474 52.4897 61.9919C51.747 60.4133 48.496 54.2511 46.9546 53.6002C45.4132 52.9632 43.1571 51.8692 42.7087 52.1739L42.2603 52.4647C41.6577 53.6002 42.008 57.3529 42.008 57.3529C42.008 57.3529 47.0527 61.7981 47.8935 62.7813C48.7343 63.7644 48.6362 65.9385 48.496 67.3649C48.468 67.6557 48.454 68.0434 48.454 68.4588L40.7889 68.9297L37.8322 67.351C38.7851 67.2679 45.217 67.0741 45.217 67.0741L43.1571 64.1383L34.1748 63.1413C34.1748 63.1413 33.1939 63.4736 33.1939 63.7367C33.1939 63.9029 34.7914 65.4262 36.1366 66.4509L35.5341 66.1324L31.5544 67.5864L31.19 67.8495L43.1571 74.5657L35.8564 77.3491L47.9776 78.54C47.9776 78.54 33.278 79.0108 29.9008 80.5341C26.6218 82.0019 15.4955 85.9208 16.2382 86.4609L16 86.5163C16 86.5163 16.1121 86.5024 16.2662 86.4747C16.2943 86.4747 16.2803 86.5024 16.3223 86.5163C16.6866 86.5855 18.5504 86.2809 21.2549 85.7408C33.292 83.9544 62.7192 79.4955 73.369 77.1829H73.327Z" fill="#101012"/>
<path d="M97.2331 75.8674C68.8008 84.3422 39.3036 88.912 27.855 90.2829C30.6436 90.089 34.8194 89.8536 40.9291 89.6044C55.1943 89.0366 91.2356 81.5173 91.2356 81.5173L55.0962 92C64.7511 92 100.778 80.5618 100.778 80.8664C100.778 81.1711 82.7718 88.7043 82.7718 88.7043C91.712 87.7626 104.352 80.6864 107.519 78.4569C110.686 76.2136 108.892 71.0345 108.892 71.0345C108.892 71.0345 105.122 73.5133 97.2331 75.8674Z" fill="#101012"/>
</svg>
