<svg width="130" height="130" viewBox="0 0 130 130" fill="none" xmlns="http://www.w3.org/2000/svg">
<path d="M78.0872 49.0249H50.921V68.767H78.0872V49.0249Z" fill="#101012"/>
<path d="M78.0872 71.1736H50.921V92.4766H78.0872V71.1736Z" fill="#101012"/>
<path d="M48.1748 45.7983H42.8059V65.6102H48.1748V45.7983Z" fill="#101012"/>
<path d="M33 55.7045V68.0608H40.0513V48.2402C36.1587 48.2402 33 51.58 33 55.7045Z" fill="#101012"/>
<path d="M33 85.5355C33 89.6513 36.1587 92.9911 40.0513 92.9911V70.5022H33V85.5355Z" fill="#101012"/>
<path d="M88.9487 48.2402V68.052H96V55.6958C96 51.58 92.8413 48.2402 88.9487 48.2402Z" fill="#101012"/>
<path d="M88.9487 92.9913C92.8413 92.9913 96 89.6515 96 85.5357V70.5111H88.9487V93V92.9913Z" fill="#101012"/>
<path d="M86.2024 45.7983H80.8335V65.6102H86.2024V45.7983Z" fill="#101012"/>
<path d="M48.1748 76.7369H42.8059V92.991H48.1748V76.7369Z" fill="#101012"/>
<path d="M86.2024 76.7369H80.8335V92.991H86.2024V76.7369Z" fill="#101012"/>
<path d="M48.1748 68.6185H42.8059V74.522H48.1748V68.6185Z" fill="#101012"/>
<path d="M86.2024 68.6185H80.8335V74.522H86.2024V68.6185Z" fill="#101012"/>
<path d="M57.4858 42.2582C57.4858 41.4472 58.1126 40.7845 58.8796 40.7845H70.1287C70.8957 40.7845 71.5225 41.4472 71.5225 42.2582V46.4961H75.5966V40.488C75.5966 38.5609 74.1203 37 72.2977 37H56.7106C54.888 37 53.4117 38.5609 53.4117 40.488V46.4961H57.4858V42.2582Z" fill="#101012"/>
</svg>
