<svg viewBox="0 0 24 21" fill="none" xmlns="http://www.w3.org/2000/svg">
<path d="M8.8935 1.13563C8.94412 1.05113 8.97761 0.95748 8.99204 0.860034C9.00647 0.762587 9.00157 0.663253 8.97761 0.567702C8.95366 0.47215 8.91111 0.382253 8.85241 0.303143C8.79371 0.224033 8.72001 0.15726 8.6355 0.106635C8.55099 0.0560104 8.45735 0.0225262 8.3599 0.00809404C8.26245 -0.00633807 8.16312 -0.00143534 8.06757 0.0225222C7.97201 0.0464797 7.88212 0.0890229 7.80301 0.147723C7.7239 0.206423 7.65712 0.280129 7.6065 0.364635L3.3255 7.50014H0.75C0.551088 7.50014 0.360322 7.57915 0.21967 7.71981C0.0790176 7.86046 0 8.05122 0 8.25014L0 9.75014C0 9.94905 0.0790176 10.1398 0.21967 10.2805C0.360322 10.4211 0.551088 10.5001 0.75 10.5001H1.6845L4.4505 20.1841C4.51778 20.4197 4.6601 20.6268 4.85584 20.7741C5.05158 20.9214 5.29004 21.0007 5.535 21.0001H18.468C18.7127 21.0004 18.9508 20.9209 19.1463 20.7736C19.3417 20.6264 19.4838 20.4194 19.551 20.1841L22.3155 10.5001H23.25C23.4489 10.5001 23.6397 10.4211 23.7803 10.2805C23.921 10.1398 24 9.94905 24 9.75014V8.25014C24 8.05122 23.921 7.86046 23.7803 7.71981C23.6397 7.57915 23.4489 7.50014 23.25 7.50014H20.6745L16.395 0.364635C16.3444 0.280129 16.2776 0.206423 16.1985 0.147723C16.1194 0.0890229 16.0295 0.0464797 15.9339 0.0225222C15.8384 -0.00143534 15.739 -0.00633807 15.6416 0.00809404C15.5442 0.0225262 15.4505 0.0560104 15.366 0.106635C15.2815 0.15726 15.2078 0.224033 15.1491 0.303143C15.0904 0.382253 15.0478 0.47215 15.0239 0.567702C14.9999 0.663253 14.995 0.762587 15.0095 0.860034C15.0239 0.95748 15.0574 1.05113 15.108 1.13563L18.9255 7.50014H5.0745L8.895 1.13563H8.8935ZM6 13.5001C6 13.1023 6.15804 12.7208 6.43934 12.4395C6.72064 12.1582 7.10218 12.0001 7.5 12.0001C7.89782 12.0001 8.27936 12.1582 8.56066 12.4395C8.84196 12.7208 9 13.1023 9 13.5001V16.5001C9 16.898 8.84196 17.2795 8.56066 17.5608C8.27936 17.8421 7.89782 18.0001 7.5 18.0001C7.10218 18.0001 6.72064 17.8421 6.43934 17.5608C6.15804 17.2795 6 16.898 6 16.5001V13.5001ZM10.5 13.5001C10.5 13.1023 10.658 12.7208 10.9393 12.4395C11.2206 12.1582 11.6022 12.0001 12 12.0001C12.3978 12.0001 12.7794 12.1582 13.0607 12.4395C13.342 12.7208 13.5 13.1023 13.5 13.5001V16.5001C13.5 16.898 13.342 17.2795 13.0607 17.5608C12.7794 17.8421 12.3978 18.0001 12 18.0001C11.6022 18.0001 11.2206 17.8421 10.9393 17.5608C10.658 17.2795 10.5 16.898 10.5 16.5001V13.5001ZM16.5 12.0001C16.8978 12.0001 17.2794 12.1582 17.5607 12.4395C17.842 12.7208 18 13.1023 18 13.5001V16.5001C18 16.898 17.842 17.2795 17.5607 17.5608C17.2794 17.8421 16.8978 18.0001 16.5 18.0001C16.1022 18.0001 15.7206 17.8421 15.4393 17.5608C15.158 17.2795 15 16.898 15 16.5001V13.5001C15 13.1023 15.158 12.7208 15.4393 12.4395C15.7206 12.1582 16.1022 12.0001 16.5 12.0001Z" fill="currentColor"/>
</svg>
