<svg viewBox="0 0 18 18" fill="none" xmlns="http://www.w3.org/2000/svg">
<path d="M12.376 1.68726C12.4498 1.68726 12.5236 1.70197 12.5918 1.73022C12.6601 1.75858 12.7222 1.80089 12.7744 1.85327C12.8268 1.90552 12.8691 1.96755 12.8975 2.03589C12.9257 2.10397 12.9404 2.17705 12.9404 2.25073C12.9404 2.32459 12.9257 2.39832 12.8975 2.46655C12.8691 2.53489 12.8268 2.59692 12.7744 2.64917L6.42188 9.00073L12.7744 15.3533C12.8799 15.4588 12.9393 15.6015 12.9395 15.7507C12.9395 15.9001 12.88 16.0435 12.7744 16.1492C12.6688 16.2548 12.5253 16.3142 12.376 16.3142C12.2268 16.3141 12.084 16.2547 11.9785 16.1492L5.22852 9.39917C5.17613 9.34692 5.13383 9.28489 5.10547 9.21655C5.07721 9.14832 5.0625 9.07459 5.0625 9.00073C5.06256 8.92704 5.07728 8.85397 5.10547 8.78589C5.13383 8.71755 5.17613 8.65552 5.22852 8.60327L11.9785 1.85327C12.0308 1.80089 12.0928 1.75858 12.1611 1.73022C12.2292 1.70203 12.3023 1.68732 12.376 1.68726Z" fill="currentColor"/>
</svg>
