<svg viewBox="0 0 18 18" fill="none" xmlns="http://www.w3.org/2000/svg">
<path fill-rule="evenodd" clip-rule="evenodd" d="M1.8508 5.22675C1.90305 5.17436 1.96513 5.1328 2.03346 5.10445C2.1018 5.07609 2.17506 5.06149 2.24905 5.06149C2.32304 5.06149 2.3963 5.07609 2.46464 5.10445C2.53298 5.1328 2.59505 5.17436 2.6473 5.22675L8.99905 11.5796L15.3508 5.22675C15.4031 5.17445 15.4652 5.13296 15.5335 5.10466C15.6019 5.07636 15.6751 5.06179 15.7491 5.06179C15.823 5.06179 15.8963 5.07636 15.9646 5.10466C16.0329 5.13296 16.095 5.17445 16.1473 5.22675C16.1996 5.27905 16.2411 5.34113 16.2694 5.40947C16.2977 5.4778 16.3123 5.55104 16.3123 5.625C16.3123 5.69896 16.2977 5.7722 16.2694 5.84053C16.2411 5.90886 16.1996 5.97095 16.1473 6.02325L9.3973 12.7732C9.34505 12.8256 9.28298 12.8672 9.21464 12.8955C9.1463 12.9239 9.07304 12.9385 8.99905 12.9385C8.92506 12.9385 8.8518 12.9239 8.78346 12.8955C8.71513 12.8672 8.65305 12.8256 8.6008 12.7732L1.8508 6.02325C1.79842 5.971 1.75686 5.90892 1.7285 5.84059C1.70014 5.77225 1.68555 5.69899 1.68555 5.625C1.68555 5.55101 1.70014 5.47775 1.7285 5.40941C1.75686 5.34107 1.79842 5.279 1.8508 5.22675Z" fill="currentColor"/>
</svg>
