<svg viewBox="0 0 18 18" fill="none" xmlns="http://www.w3.org/2000/svg">
<path d="M5.62598 1.68726C5.69983 1.68726 5.77356 1.70197 5.8418 1.73022C5.91014 1.75858 5.97216 1.80089 6.02441 1.85327L12.7744 8.60327C12.8268 8.65552 12.8691 8.71755 12.8975 8.78589C12.9257 8.85397 12.9404 8.92705 12.9404 9.00073C12.9404 9.07459 12.9257 9.14832 12.8975 9.21655C12.8691 9.28489 12.8268 9.34692 12.7744 9.39917L6.02441 16.1492C5.91879 16.2548 5.77535 16.3142 5.62598 16.3142C5.47678 16.3141 5.33402 16.2547 5.22852 16.1492C5.12289 16.0435 5.06348 15.9001 5.06348 15.7507C5.0636 15.6015 5.12301 15.4588 5.22852 15.3533L11.5811 9.00073L5.22852 2.64917C5.17613 2.59692 5.13383 2.53489 5.10547 2.46655C5.07721 2.39832 5.0625 2.32459 5.0625 2.25073C5.06256 2.17704 5.07728 2.10397 5.10547 2.03589C5.13383 1.96755 5.17613 1.90552 5.22852 1.85327C5.28077 1.80089 5.34279 1.75858 5.41113 1.73022C5.47921 1.70203 5.55229 1.68732 5.62598 1.68726Z" fill="currentColor"/>
</svg>
