<svg viewBox="0 0 18 18" fill="none" xmlns="http://www.w3.org/2000/svg">
<path fill-rule="evenodd" clip-rule="evenodd" d="M15.5848 2.41428C15.6372 2.46653 15.6787 2.5286 15.7071 2.59694C15.7355 2.66528 15.7501 2.73854 15.7501 2.81253C15.7501 2.88652 15.7355 2.95978 15.7071 3.02812C15.6787 3.09646 15.6372 3.15853 15.5848 3.21078L3.2098 15.5858C3.10418 15.6914 2.96093 15.7507 2.81155 15.7507C2.66218 15.7507 2.51892 15.6914 2.4133 15.5858C2.30768 15.4802 2.24834 15.3369 2.24834 15.1875C2.24834 15.0382 2.30768 14.8949 2.4133 14.7893L14.7883 2.41428C14.8406 2.3619 14.9026 2.32033 14.971 2.29198C15.0393 2.26362 15.1126 2.24902 15.1866 2.24902C15.2605 2.24902 15.3338 2.26362 15.4021 2.29198C15.4705 2.32033 15.5326 2.3619 15.5848 2.41428Z" fill="currentColor"/>
<path fill-rule="evenodd" clip-rule="evenodd" d="M2.4133 2.41428C2.36092 2.46653 2.31936 2.5286 2.291 2.59694C2.26264 2.66528 2.24805 2.73854 2.24805 2.81253C2.24805 2.88652 2.26264 2.95978 2.291 3.02812C2.31936 3.09646 2.36092 3.15853 2.4133 3.21078L14.7883 15.5858C14.8939 15.6914 15.0372 15.7507 15.1866 15.7507C15.3359 15.7507 15.4792 15.6914 15.5848 15.5858C15.6904 15.4802 15.7498 15.3369 15.7498 15.1875C15.7498 15.0382 15.6904 14.8949 15.5848 14.7893L3.2098 2.41428C3.15755 2.3619 3.09548 2.32033 3.02714 2.29198C2.9588 2.26362 2.88554 2.24902 2.81155 2.24902C2.73756 2.24902 2.6643 2.26362 2.59596 2.29198C2.52763 2.32033 2.46555 2.3619 2.4133 2.41428Z" fill="currentColor"/>
</svg>
