<svg viewBox="0 0 24 24" fill="none" xmlns="http://www.w3.org/2000/svg">
<path d="M12.0003 0C18.6275 0 24 5.37269 24 11.9999C24 18.6269 18.6275 24 12.0003 24C5.3731 24 0.000164032 18.6269 0.000164032 11.9999C0.000164032 5.37269 5.3731 0 12.0003 0ZM12 4.21492L4.89893 8.64297H19.1012L12 4.21492ZM4.81045 15.714H4.81117C4.81117 16.4242 5.38678 16.9998 6.09694 16.9998H17.9031C18.6134 16.9998 19.1889 16.4242 19.1889 15.714V8.92473C19.1889 8.84961 19.1812 8.77657 19.1688 8.70481L12.384 12.9355C12.3757 12.9407 12.3668 12.9442 12.3583 12.949C12.3493 12.954 12.3402 12.9588 12.3311 12.9633C12.2832 12.988 12.2338 13.008 12.1833 13.021C12.1781 13.0224 12.1729 13.0231 12.1677 13.0243C12.1124 13.0373 12.0563 13.0455 12.0003 13.0455H11.9999C11.9995 13.0455 11.9991 13.0455 11.9991 13.0455C11.9431 13.0455 11.887 13.0376 11.8316 13.0243C11.8264 13.023 11.8212 13.0224 11.816 13.021C11.7656 13.008 11.7164 12.988 11.6683 12.9633C11.6592 12.9588 11.65 12.954 11.6411 12.949C11.6326 12.9442 11.6236 12.9407 11.6153 12.9355L4.83061 8.70481C4.81813 8.77657 4.81045 8.84945 4.81045 8.92473V15.714Z" fill="currentColor"/>
</svg>
