<svg viewBox="0 0 65 64" fill="none" xmlns="http://www.w3.org/2000/svg">
<path d="M32.5007 0C50.1732 0 64.5 14.3272 64.5 31.9997C64.5 49.6717 50.1732 64 32.5007 64C14.8283 64 0.500431 49.6717 0.500431 31.9997C0.500431 14.3272 14.8283 0 32.5007 0ZM32.5001 11.2398L13.5638 23.0479H51.4364L32.5001 11.2398ZM13.3279 41.904H13.3298C13.3298 43.798 14.8647 45.3327 16.7585 45.3327H48.2417C50.1357 45.3327 51.6704 43.7978 51.6704 41.904V23.7993C51.6704 23.599 51.65 23.4042 51.6167 23.2128L33.5241 34.4946C33.5019 34.5085 33.4783 34.5179 33.4554 34.5307C33.4315 34.5439 33.4072 34.5567 33.3829 34.5689C33.2551 34.6348 33.1235 34.6879 32.9889 34.7227C32.975 34.7265 32.9611 34.7282 32.9473 34.7314C32.7996 34.7662 32.6501 34.788 32.5007 34.788H32.4997C32.4986 34.788 32.4976 34.788 32.4976 34.788C32.3482 34.788 32.1987 34.7669 32.051 34.7314C32.0372 34.728 32.0233 34.7265 32.0094 34.7227C31.875 34.6879 31.7438 34.6348 31.6154 34.5689C31.5911 34.5567 31.5668 34.5439 31.5429 34.5307C31.5203 34.5179 31.4964 34.5085 31.4742 34.4946L13.3816 23.2128C13.3483 23.4042 13.3279 23.5985 13.3279 23.7993V41.904Z" fill="#212529"/>
</svg>
