<svg viewBox="0 0 65 64" fill="none" xmlns="http://www.w3.org/2000/svg">
<path d="M32.5 1C49.6213 1 63.5 14.431 63.5 31C63.5 47.569 49.6213 61 32.5 61C27.0216 61.0091 21.6394 59.606 16.907 56.935L1.51245 61L5.70364 46.096C2.94142 41.5148 1.49045 36.304 1.50005 31C1.50005 14.431 15.3787 1 32.5 1ZM21.9352 16.9L21.3152 16.924C20.9144 16.9507 20.5227 17.0526 20.162 17.224C19.8259 17.4085 19.519 17.6389 19.2506 17.908C18.8786 18.247 18.6678 18.541 18.4415 18.826C17.2949 20.2687 16.6776 22.0399 16.6869 23.86C16.6931 25.33 17.0899 26.761 17.7099 28.099C18.9778 30.805 21.0641 33.67 23.8169 36.325C24.4803 36.964 25.1313 37.606 25.8319 38.203C29.2526 41.1172 33.3286 43.2189 37.7359 44.341L39.4967 44.602C40.0702 44.632 40.6437 44.59 41.2203 44.563C42.123 44.5169 43.0043 44.2804 43.8026 43.87C44.2082 43.667 44.6044 43.4468 44.9899 43.21C44.9899 43.21 45.1212 43.124 45.3774 42.94C45.7959 42.64 46.0532 42.427 46.4004 42.076C46.6608 41.816 46.8778 41.514 47.0514 41.17C47.2932 40.681 47.535 39.748 47.6342 38.971C47.7086 38.377 47.6869 38.053 47.6776 37.852C47.6652 37.531 47.3893 37.198 47.0886 37.057L45.2844 36.274C45.2844 36.274 42.5874 35.137 40.9382 34.411C40.7656 34.3382 40.5807 34.2966 40.3926 34.288C40.1805 34.2665 39.9661 34.2894 39.7639 34.3551C39.5617 34.4209 39.3765 34.5279 39.2208 34.669C39.2053 34.663 38.9976 34.834 36.7563 37.462C36.6277 37.6293 36.4505 37.7557 36.2473 37.8251C36.0441 37.8946 35.8242 37.9039 35.6155 37.852C35.4135 37.7999 35.2156 37.7337 35.0234 37.654C34.639 37.498 34.5057 37.438 34.2422 37.33C32.4624 36.5797 30.815 35.5644 29.3597 34.321C28.9691 33.991 28.6064 33.631 28.2344 33.283C27.0149 32.1526 25.9521 30.8739 25.0724 29.479L24.8895 29.194C24.7601 29.0014 24.6541 28.795 24.5733 28.579C24.4555 28.138 24.7624 27.784 24.7624 27.784C24.7624 27.784 25.5157 26.986 25.866 26.554C26.207 26.134 26.4953 25.726 26.6813 25.435C27.0471 24.865 27.1618 24.28 26.9696 23.827C26.1016 21.775 25.2047 19.734 24.2788 17.704C24.0959 17.302 23.5534 17.014 23.0605 16.957C22.8931 16.937 22.7257 16.921 22.5583 16.909C22.1421 16.8859 21.7247 16.8899 21.309 16.921L21.9352 16.9Z" fill="#25D366"/>
</svg>
