<svg viewBox="0 0 65 64" fill="none" xmlns="http://www.w3.org/2000/svg">
<path d="M63.5 32C63.5 48.569 49.6213 62 32.5 62C15.3787 62 1.5 48.569 1.5 32C1.5 15.431 15.3787 2 32.5 2C49.6213 2 63.5 15.431 63.5 32ZM33.6098 24.146C30.5966 25.36 24.5712 27.873 15.5337 31.685C14.0643 32.249 13.2955 32.801 13.2273 33.341C13.1095 34.253 14.2906 34.613 15.8995 35.102L16.5753 35.312C18.1563 35.81 20.2891 36.392 21.3958 36.416C22.4002 36.436 23.5203 36.036 24.7562 35.216C33.2006 29.696 37.5592 26.907 37.832 26.849C38.0273 26.807 38.2939 26.753 38.4737 26.909C38.6566 27.065 38.638 27.359 38.6194 27.44C38.5016 27.923 33.864 32.096 31.4646 34.253C30.7537 34.901 30.0479 35.554 29.3473 36.212C27.8779 37.583 26.7743 38.612 29.4093 40.292C32.0784 41.996 34.7723 43.694 37.3763 45.491C38.6597 46.379 39.8129 47.171 41.2389 47.048C42.0666 46.973 42.9222 46.22 43.3562 43.97C44.3854 38.66 46.4035 27.146 46.8685 22.4C46.8955 22.0063 46.8778 21.611 46.8158 21.221C46.7792 20.9072 46.6221 20.6181 46.3756 20.411C46.0036 20.117 45.4301 20.057 45.1759 20.06C44.0103 20.081 42.2216 20.681 33.6129 24.146" fill="#33ABE0"/>
</svg>
