<svg viewBox="0 0 38 38" fill="none" xmlns="http://www.w3.org/2000/svg">
<path d="M35.1669 29.4004C35.1669 29.7136 35.0405 30.014 34.8154 30.2355C34.5904 30.457 34.2851 30.5814 33.9669 30.5814H25.8069C25.5396 31.5622 24.9511 32.4288 24.1324 33.0469C23.3137 33.665 22.3107 34 21.2789 34C20.2471 34 19.2441 33.665 18.4255 33.0469C17.6068 32.4288 17.0182 31.5622 16.7509 30.5814H4.36699C4.04873 30.5814 3.74351 30.457 3.51846 30.2355C3.29342 30.014 3.16699 29.7136 3.16699 29.4004C3.16699 29.0872 3.29342 28.7868 3.51846 28.5654C3.74351 28.3439 4.04873 28.2195 4.36699 28.2195H16.7509C17.0182 27.2387 17.6068 26.372 18.4255 25.7539C19.2441 25.1359 20.2471 24.8009 21.2789 24.8009C22.3107 24.8009 23.3137 25.1359 24.1324 25.7539C24.9511 26.372 25.5396 27.2387 25.8069 28.2195H33.9669C34.2851 28.2195 34.5904 28.3439 34.8154 28.5654C35.0405 28.7868 35.1669 29.0872 35.1669 29.4004ZM35.1669 8.59958C35.1669 8.91279 35.0405 9.21317 34.8154 9.43465C34.5904 9.65612 34.2851 9.78055 33.9669 9.78055H30.0469C29.7796 10.7613 29.191 11.628 28.3724 12.2461C27.5537 12.8641 26.5507 13.1992 25.5189 13.1992C24.4871 13.1992 23.4841 12.8641 22.6655 12.2461C21.8468 11.628 21.2582 10.7613 20.9909 9.78055H4.36699C4.2094 9.78055 4.05336 9.75 3.90777 9.69065C3.76218 9.6313 3.62989 9.54431 3.51846 9.43465C3.40703 9.32499 3.31864 9.1948 3.25834 9.05151C3.19803 8.90823 3.16699 8.75466 3.16699 8.59958C3.16699 8.44449 3.19803 8.29092 3.25834 8.14764C3.31864 8.00436 3.40703 7.87417 3.51846 7.7645C3.62989 7.65484 3.76218 7.56785 3.90777 7.5085C4.05336 7.44915 4.2094 7.4186 4.36699 7.4186H20.9909C21.2582 6.43781 21.8468 5.57118 22.6655 4.9531C23.4841 4.33501 24.4871 4 25.5189 4C26.5507 4 27.5537 4.33501 28.3724 4.9531C29.191 5.57118 29.7796 6.43781 30.0469 7.4186H33.9669C34.1251 7.41649 34.2821 7.44559 34.4286 7.50418C34.5752 7.56278 34.7083 7.64969 34.8202 7.75978C34.9321 7.86987 35.0204 8.0009 35.0799 8.14514C35.1395 8.28938 35.169 8.4439 35.1669 8.59958ZM35.1669 18.9921C35.169 19.1478 35.1395 19.3023 35.0799 19.4466C35.0204 19.5908 34.9321 19.7218 34.8202 19.8319C34.7083 19.942 34.5752 20.0289 34.4286 20.0875C34.2821 20.1461 34.1251 20.1752 33.9669 20.1731H15.247C14.9797 21.1539 14.3911 22.0205 13.5724 22.6386C12.7538 23.2567 11.7508 23.5917 10.719 23.5917C9.68715 23.5917 8.68416 23.2567 7.8655 22.6386C7.04684 22.0205 6.45825 21.1539 6.19098 20.1731H4.36699C4.04873 20.1731 3.74351 20.0487 3.51846 19.8272C3.29342 19.6057 3.16699 19.3053 3.16699 18.9921C3.16699 18.6789 3.29342 18.3785 3.51846 18.1571C3.74351 17.9356 4.04873 17.8112 4.36699 17.8112H6.19098C6.45825 16.8304 7.04684 15.9637 7.8655 15.3456C8.68416 14.7276 9.68715 14.3926 10.719 14.3926C11.7508 14.3926 12.7538 14.7276 13.5724 15.3456C14.3911 15.9637 14.9797 16.8304 15.247 17.8112H33.9669C34.2851 17.8112 34.5904 17.9356 34.8154 18.1571C35.0405 18.3785 35.1669 18.6789 35.1669 18.9921Z" fill="currentColor"/>
</svg>
