<svg viewBox="0 0 32 30" fill="none" xmlns="http://www.w3.org/2000/svg">
<path d="M0 4.55C0 3.91487 0.514873 3.4 1.15 3.4H30.85C31.4851 3.4 32 3.91487 32 4.55C32 5.18513 31.4851 5.7 30.85 5.7H1.15C0.514872 5.7 0 5.18513 0 4.55Z" fill="currentColor"/>
<path d="M0 14.95C0 14.3149 0.514873 13.8 1.15 13.8H30.85C31.4851 13.8 32 14.3149 32 14.95C32 15.5851 31.4851 16.1 30.85 16.1H1.15C0.514872 16.1 0 15.5851 0 14.95Z" fill="currentColor"/>
<path d="M0 25.35C0 24.7149 0.514873 24.2 1.15 24.2H30.85C31.4851 24.2 32 24.7149 32 25.35C32 25.9851 31.4851 26.5 30.85 26.5H1.15C0.514872 26.5 0 25.9851 0 25.35Z" fill="currentColor"/>
<path d="M27.0002 4.65C27.0002 7.21812 24.9183 9.3 22.3502 9.3C19.7821 9.3 17.7002 7.21812 17.7002 4.65C17.7002 2.08188 19.7821 0 22.3502 0C24.9183 0 27.0002 2.08188 27.0002 4.65Z" fill="currentColor"/>
<path d="M12.3 14.95C12.3 17.5181 10.2181 19.6 7.65 19.6C5.08188 19.6 3 17.5181 3 14.95C3 12.3819 5.08188 10.3 7.65 10.3C10.2181 10.3 12.3 12.3819 12.3 14.95Z" fill="currentColor"/>
<path d="M22.8 25.35C22.8 27.9181 20.7181 30 18.15 30C15.5819 30 13.5 27.9181 13.5 25.35C13.5 22.7819 15.5819 20.7 18.15 20.7C20.7181 20.7 22.8 22.7819 22.8 25.35Z" fill="currentColor"/>
</svg>
