<svg viewBox="0 0 32 32" fill="none" xmlns="http://www.w3.org/2000/svg">
<path d="M15.9993 15.3332C15.1153 15.3332 14.2674 14.982 13.6423 14.3569C13.0172 13.7317 12.666 12.8839 12.666 11.9998C12.666 11.1158 13.0172 10.2679 13.6423 9.64281C14.2674 9.01769 15.1153 8.6665 15.9993 8.6665C16.8834 8.6665 17.7312 9.01769 18.3564 9.64281C18.9815 10.2679 19.3327 11.1158 19.3327 11.9998C19.3327 12.4376 19.2465 12.871 19.0789 13.2754C18.9114 13.6799 18.6659 14.0473 18.3564 14.3569C18.0468 14.6664 17.6794 14.9119 17.275 15.0794C16.8705 15.247 16.4371 15.3332 15.9993 15.3332ZM15.9993 2.6665C13.524 2.6665 11.15 3.64983 9.39969 5.40017C7.64935 7.15051 6.66602 9.52448 6.66602 11.9998C6.66602 18.9998 15.9993 29.3332 15.9993 29.3332C15.9993 29.3332 25.3327 18.9998 25.3327 11.9998C25.3327 9.52448 24.3493 7.15051 22.599 5.40017C20.8487 3.64983 18.4747 2.6665 15.9993 2.6665Z" fill="currentColor"/>
</svg>
