<svg viewBox="0 0 141 22" fill="none" preserveAspectRatio="none" xmlns="http://www.w3.org/2000/svg">
<path d="M25.0276 21.3969L29.9992 11.4301V11.4269C29.9992 11.4269 29.9992 11.4301 29.9961 11.4301L15.009 11.4269C11.659 11.4269 3.95967 12.6083 0 21.3969C0 21.3969 0 21.3969 0 21.4H25.0276V21.3969Z" fill="currentColor"/>
<path d="M30 0H4.9755L0.00390625 9.96682L14.991 9.96995C18.341 9.97308 26.0403 8.79168 30 0Z" fill="currentColor"/>
<path d="M92.684 5.20001H88.9253L84.5334 9.50274L80.1415 5.20001H76.3828L81.6342 10.4072C82.1731 10.9406 82.1704 11.8179 81.6288 12.3487L76.3828 17.4881H80.2897L84.5334 13.2802L88.7771 17.4881H92.684L87.438 12.3487C86.8964 11.8179 86.8937 10.9406 87.4326 10.4072L92.684 5.20001Z" fill="currentColor"/>
<path d="M141 5.26223H136.449H136.29H134.593H131.063H127.202H127.183L126.51 7.78322H130.832C131.438 7.78322 131.928 8.27605 131.928 8.88531V17.4881H135.579V8.88531C135.579 8.27605 136.07 7.78322 136.676 7.78322H140.327L140.545 6.96545H140.558L141 5.25952V5.26223Z" fill="currentColor"/>
<path d="M41.9011 5.20001L42.4561 7.65871H50.8842L40.5 17.4286H44.3449H44.8946H56.1841H56.2138L55.6318 14.9698H47.1983L57.1433 5.20001H41.9011Z" fill="currentColor"/>
<path d="M67.3816 5.26227H66.5086H65.6356L60.0205 14.4635L58.1641 17.4908H59.5625H61.2303L61.6937 16.7299C62.0251 16.1856 62.5991 15.8391 63.2269 15.793H69.785C70.4128 15.8391 70.9867 16.1856 71.3181 16.7299L71.7816 17.4908H73.4494H74.8478L72.9914 14.4635L67.3816 5.26227ZM63.7684 13.3343L66.5086 8.84201L69.2488 13.3343H63.7684Z" fill="currentColor"/>
<path d="M99.1971 5.26227L99.8707 7.78326H103.532V7.94843V8.92326V10.3394V11.6988V14.3822C103.532 14.7045 103.271 14.9671 102.95 14.9671H94.207L94.8806 17.4881H102.692H103.664H104.465C104.559 17.4881 104.651 17.4827 104.742 17.4746C105.75 17.3717 106.593 16.7191 106.97 15.8174C107.108 15.4897 107.183 15.1296 107.183 14.7532V11.7015V7.78597V7.70473V5.26498H99.1971V5.26227Z" fill="currentColor"/>
<path d="M123.939 14.9698H114.458C114.258 14.9698 114.097 14.8073 114.097 14.607V12.6384H119.712L120.385 10.1174H114.099V8.14878C114.099 7.9484 114.261 7.78594 114.46 7.78594H123.061L123.735 5.26495H119.453H117.696H113.798H113.173C111.669 5.26495 110.451 6.48889 110.451 7.99985V10.1174V11.3792V12.6411V14.7586C110.451 16.2696 111.669 17.4935 113.173 17.4935H113.633H123.274H123.298L123.74 15.7876H123.729L123.939 14.9698Z" fill="currentColor"/>
</svg>
