<svg viewBox="0 0 18 19" fill="none" xmlns="http://www.w3.org/2000/svg">
<path d="M17.4397 2.68245C17.5449 2.78789 17.6039 2.9307 17.6039 3.07958C17.6039 3.22846 17.5449 3.37127 17.4397 3.4767L16.2664 4.6512L14.0164 2.4012L15.1897 1.2267C15.2952 1.12125 15.4383 1.06201 15.5874 1.06201C15.7366 1.06201 15.8796 1.12125 15.9851 1.2267L17.4397 2.68133V2.68245ZM15.471 5.44545L13.221 3.19545L5.55638 10.8612C5.49446 10.9231 5.44785 10.9986 5.42025 11.0817L4.51463 13.7975C4.4982 13.847 4.49587 13.9001 4.50789 13.9508C4.51991 14.0016 4.54581 14.048 4.5827 14.0849C4.61958 14.1218 4.666 14.1477 4.71676 14.1597C4.76751 14.1717 4.82062 14.1694 4.87012 14.153L7.58588 13.2473C7.66886 13.2201 7.74435 13.1738 7.80638 13.1123L15.471 5.44545Z" fill="currentColor"/>
<path fill-rule="evenodd" clip-rule="evenodd" d="M1.125 15.6875C1.125 16.135 1.30279 16.5642 1.61926 16.8807C1.93573 17.1972 2.36495 17.375 2.8125 17.375H15.1875C15.6351 17.375 16.0643 17.1972 16.3807 16.8807C16.6972 16.5642 16.875 16.135 16.875 15.6875V8.93745C16.875 8.78827 16.8157 8.6452 16.7102 8.53971C16.6048 8.43422 16.4617 8.37495 16.3125 8.37495C16.1633 8.37495 16.0202 8.43422 15.9148 8.53971C15.8093 8.6452 15.75 8.78827 15.75 8.93745V15.6875C15.75 15.8366 15.6907 15.9797 15.5852 16.0852C15.4798 16.1907 15.3367 16.25 15.1875 16.25H2.8125C2.66332 16.25 2.52024 16.1907 2.41475 16.0852C2.30926 15.9797 2.25 15.8366 2.25 15.6875V3.31245C2.25 3.16327 2.30926 3.0202 2.41475 2.91471C2.52024 2.80922 2.66332 2.74995 2.8125 2.74995H10.125C10.2742 2.74995 10.4173 2.69069 10.5227 2.5852C10.6282 2.47971 10.6875 2.33664 10.6875 2.18745C10.6875 2.03827 10.6282 1.8952 10.5227 1.78971C10.4173 1.68422 10.2742 1.62495 10.125 1.62495H2.8125C2.36495 1.62495 1.93573 1.80274 1.61926 2.11921C1.30279 2.43568 1.125 2.8649 1.125 3.31245V15.6875Z" fill="currentColor"/>
</svg>
