<svg viewBox="0 0 106 106" fill="none" xmlns="http://www.w3.org/2000/svg">
<path d="M0 13.25C0 9.73588 1.39598 6.36569 3.88084 3.88084C6.36569 1.39598 9.73588 0 13.25 0L92.75 0C96.2641 0 99.6343 1.39598 102.119 3.88084C104.604 6.36569 106 9.73588 106 13.25V92.75C106 96.2641 104.604 99.6343 102.119 102.119C99.6343 104.604 96.2641 106 92.75 106H13.25C9.73588 106 6.36569 104.604 3.88084 102.119C1.39598 99.6343 0 96.2641 0 92.75V13.25ZM36.4375 79.5C36.4373 80.1385 36.6217 80.7635 36.9684 81.2997C37.3152 81.8358 37.8095 82.2604 38.3919 82.5222C38.9743 82.784 39.6199 82.8719 40.2511 82.7753C40.8822 82.6787 41.4721 82.4017 41.9495 81.9777L71.762 55.4777C72.1123 55.167 72.3927 54.7854 72.5847 54.3583C72.7767 53.9312 72.876 53.4683 72.876 53C72.876 52.5317 72.7767 52.0688 72.5847 51.6417C72.3927 51.2146 72.1123 50.833 71.762 50.5223L41.9495 24.0222C41.4721 23.5983 40.8822 23.3213 40.2511 23.2247C39.6199 23.1281 38.9743 23.216 38.3919 23.4778C37.8095 23.7396 37.3152 24.1642 36.9684 24.7003C36.6217 25.2365 36.4373 25.8615 36.4375 26.5V79.5Z" fill="currentColor"/>
</svg>
