<svg viewBox="0 0 19 18" fill="none" xmlns="http://www.w3.org/2000/svg">
<path fill-rule="evenodd" clip-rule="evenodd" d="M9.66797 2.25C9.81715 2.25 9.96023 2.30926 10.0657 2.41475C10.1712 2.52024 10.2305 2.66332 10.2305 2.8125V8.4375H15.8555C16.0047 8.4375 16.1477 8.49676 16.2532 8.60225C16.3587 8.70774 16.418 8.85082 16.418 9C16.418 9.14918 16.3587 9.29226 16.2532 9.39775C16.1477 9.50324 16.0047 9.5625 15.8555 9.5625H10.2305V15.1875C10.2305 15.3367 10.1712 15.4798 10.0657 15.5852C9.96023 15.6907 9.81715 15.75 9.66797 15.75C9.51878 15.75 9.37571 15.6907 9.27022 15.5852C9.16473 15.4798 9.10547 15.3367 9.10547 15.1875V9.5625H3.48047C3.33128 9.5625 3.18821 9.50324 3.08272 9.39775C2.97723 9.29226 2.91797 9.14918 2.91797 9C2.91797 8.85082 2.97723 8.70774 3.08272 8.60225C3.18821 8.49676 3.33128 8.4375 3.48047 8.4375H9.10547V2.8125C9.10547 2.66332 9.16473 2.52024 9.27022 2.41475C9.37571 2.30926 9.51878 2.25 9.66797 2.25Z" fill="currentColor"/>
</svg>
