<svg viewBox="0 0 441 127" fill="none" xmlns="http://www.w3.org/2000/svg">
<rect x="0.5" width="440" height="127" rx="10" fill="white"/>
<path d="M109.703 68.3151H90.25V60.5229H109.703C110.84 60.5229 111.63 60.7233 112.026 61.0734C112.423 61.4236 112.668 62.0729 112.668 63.0215V65.8194C112.668 66.8189 112.423 67.4682 112.026 67.8184C111.63 68.1685 110.84 68.3181 109.703 68.3181V68.3151ZM111.038 53.1765H82V86.5H90.25V75.6585H105.454L112.668 86.5H121.907L113.953 75.6076C116.885 75.1677 118.202 74.258 119.288 72.7588C120.374 71.2596 120.918 68.8627 120.918 65.6638V63.1651C120.918 61.268 120.72 59.7687 120.374 58.6197C120.028 57.4706 119.436 56.4711 118.596 55.5734C117.708 54.7235 116.719 54.1251 115.533 53.7241C114.346 53.3739 112.864 53.1735 111.038 53.1735V53.1765Z" fill="#100943"/>
<path d="M133.454 76.6571V53.1735H125.193V76.4566C125.193 78.3539 125.341 79.9041 125.688 81.0533C126.035 82.2534 126.627 83.2529 127.519 84.0999C128.36 84.9977 129.35 85.5992 130.535 85.9494C131.723 86.3473 133.205 86.5 135.086 86.5H154.268C156.099 86.5 157.583 86.3503 158.768 85.9494C159.957 85.5992 160.946 85.0007 161.835 84.0999C162.676 83.25 163.269 82.2504 163.616 81.0533C163.962 79.9041 164.161 78.3539 164.161 76.4566V53.1735H155.9V76.6571C155.9 77.6566 155.655 78.306 155.257 78.6561C154.86 79.0063 154.069 79.1559 152.932 79.1559H136.422C135.234 79.1559 134.443 79.0063 134.049 78.6561C133.652 78.306 133.457 77.6566 133.457 76.6571H133.454Z" fill="#100943"/>
<path d="M194.095 86.5V60.5175H209.702V53.1735H170.264V60.5175H185.871V86.5H194.095Z" fill="#100943"/>
<path d="M224.066 76.6571V53.1735H215.805V76.4566C215.805 78.3539 215.954 79.9041 216.3 81.0533C216.646 82.2534 217.239 83.2529 218.131 84.0999C218.972 84.9977 219.962 85.5992 221.147 85.9494C222.335 86.3473 223.817 86.5 225.698 86.5H244.88C246.711 86.5 248.195 86.3503 249.38 85.9494C250.569 85.5992 251.558 85.0007 252.447 84.0999C253.288 83.25 253.881 82.2504 254.228 81.0533C254.574 79.9041 254.773 78.3539 254.773 76.4566V53.1735H246.512V76.6571C246.512 77.6566 246.267 78.306 245.87 78.6561C245.476 79.0063 244.681 79.1559 243.544 79.1559H227.034C225.846 79.1559 225.055 79.0063 224.661 78.6561C224.264 78.306 224.069 77.6566 224.069 76.6571H224.066Z" fill="#100943"/>
<path d="M269.147 73.1616H288.701C289.84 73.1616 290.633 73.3621 291.03 73.7122C291.427 74.0624 291.673 74.7118 291.673 75.6605V76.66C291.673 77.6596 291.427 78.309 291.03 78.6592C290.635 79.0093 289.84 79.159 288.701 79.159H269.147V73.1616ZM269.147 60.5205H286.713C287.903 60.5205 288.695 60.721 289.09 61.0711C289.487 61.4213 289.683 62.0707 289.683 63.0194V64.0189C289.683 65.0185 289.484 65.6679 289.09 66.0181C288.695 66.3682 287.9 66.5178 286.713 66.5178H269.147V60.5205ZM297.907 62.8668V62.2173C297.907 59.1199 297.115 56.8215 295.53 55.3731C293.946 53.9246 291.419 53.1735 288.051 53.1735H260.876V86.5H289.988C293.356 86.5 295.883 85.7997 297.467 84.3512C299.052 82.9028 299.844 80.6044 299.844 77.507V76.8067C299.844 73.7093 299.052 71.5096 297.467 70.2108C297.171 70.0103 296.874 69.8607 296.574 69.711C296.278 69.5614 295.527 69.3609 294.984 69.1604C296.074 68.5618 296.818 67.7628 297.263 66.862C297.66 65.9612 297.907 64.6145 297.907 62.8638V62.8668Z" fill="#100943"/>
<path d="M312.323 60.5175H342.098V53.1735H304.07V86.5H342.098V79.1559H312.323V73.5087H338.306V66.1647H312.323V60.5175Z" fill="#100943"/>
<path d="M352.662 53.1735C356.162 53.1735 359 50.3364 359 46.8367C359 43.3371 356.162 40.5 352.662 40.5C349.161 40.5 346.324 43.3371 346.324 46.8367C346.324 50.3364 349.161 53.1735 352.662 53.1735Z" fill="#ED143B"/>
</svg>
