<svg viewBox="0 0 18 18" fill="none" xmlns="http://www.w3.org/2000/svg">
<path d="M5.22678 5.22675C5.27903 5.17436 5.3411 5.1328 5.40944 5.10445C5.47778 5.07609 5.55104 5.06149 5.62503 5.06149C5.69902 5.06149 5.77228 5.07609 5.84062 5.10445C5.90895 5.1328 5.97103 5.17436 6.02328 5.22675L9.00003 8.20462L11.9768 5.22675C12.0291 5.17445 12.0912 5.13296 12.1595 5.10466C12.2278 5.07636 12.3011 5.06179 12.375 5.06179C12.449 5.06179 12.5222 5.07636 12.5906 5.10466C12.6589 5.13296 12.721 5.17445 12.7733 5.22675C12.8256 5.27905 12.8671 5.34113 12.8954 5.40947C12.9237 5.4778 12.9382 5.55104 12.9382 5.625C12.9382 5.69896 12.9237 5.7722 12.8954 5.84053C12.8671 5.90886 12.8256 5.97095 12.7733 6.02325L9.7954 9L12.7733 11.9767C12.8256 12.029 12.8671 12.0911 12.8954 12.1595C12.9237 12.2278 12.9382 12.301 12.9382 12.375C12.9382 12.449 12.9237 12.5222 12.8954 12.5905C12.8671 12.6589 12.8256 12.7209 12.7733 12.7732C12.721 12.8255 12.6589 12.867 12.5906 12.8953C12.5222 12.9236 12.449 12.9382 12.375 12.9382C12.3011 12.9382 12.2278 12.9236 12.1595 12.8953C12.0912 12.867 12.0291 12.8255 11.9768 12.7732L9.00003 9.79537L6.02328 12.7732C5.97098 12.8255 5.90889 12.867 5.84056 12.8953C5.77223 12.9236 5.69899 12.9382 5.62503 12.9382C5.55107 12.9382 5.47783 12.9236 5.4095 12.8953C5.34117 12.867 5.27908 12.8255 5.22678 12.7732C5.17448 12.7209 5.13299 12.6589 5.10469 12.5905C5.07639 12.5222 5.06182 12.449 5.06182 12.375C5.06182 12.301 5.07639 12.2278 5.10469 12.1595C5.13299 12.0911 5.17448 12.029 5.22678 11.9767L8.20465 9L5.22678 6.02325C5.17439 5.971 5.13283 5.90892 5.10448 5.84059C5.07612 5.77225 5.06152 5.69899 5.06152 5.625C5.06152 5.55101 5.07612 5.47775 5.10448 5.40941C5.13283 5.34107 5.17439 5.279 5.22678 5.22675Z" fill="currentColor"/>
</svg>
