<svg viewBox="0 0 20 20" fill="none" xmlns="http://www.w3.org/2000/svg">
<path d="M10.416 0C10.8565 0 11.2932 0.0881642 11.7002 0.259766C12.107 0.431353 12.4767 0.682999 12.7881 1C13.0995 1.31708 13.3471 1.69412 13.5156 2.1084C13.684 2.52252 13.7705 2.96683 13.7705 3.41504H19.2812C19.4717 3.41513 19.6544 3.49181 19.7891 3.62891C19.9239 3.76613 20 3.95242 20 4.14648C20 4.34049 19.9238 4.52687 19.7891 4.66406C19.6544 4.80107 19.4717 4.87784 19.2812 4.87793H18.0156L16.8945 16.6934C16.8085 17.5987 16.394 18.4395 15.7324 19.0508C15.0709 19.6618 14.2097 20.0003 13.3164 20H7.5166C6.6233 20.0001 5.76198 19.6611 5.10059 19.0498C4.43926 18.4385 4.02544 17.5985 3.93945 16.6934L2.81641 4.87793H1.55176C1.36131 4.87793 1.1787 4.80105 1.04395 4.66406C0.909187 4.52687 0.833045 4.34049 0.833008 4.14648C0.833008 3.95242 0.909154 3.76613 1.04395 3.62891C1.17872 3.49183 1.36124 3.41504 1.55176 3.41504H7.0625C7.0625 2.96679 7.14894 2.52255 7.31738 2.1084C7.48595 1.69412 7.73346 1.31708 8.04492 1C8.35634 0.68303 8.72596 0.431326 9.13281 0.259766C9.53963 0.0882351 9.97569 4.34735e-05 10.416 0ZM5.37012 16.5527C5.42179 17.0957 5.66971 17.6001 6.06641 17.9668C6.46327 18.3335 6.98065 18.5363 7.5166 18.5361H13.3164C13.8523 18.5362 14.3688 18.3334 14.7656 17.9668C15.1625 17.6001 15.4112 17.0958 15.4629 16.5527L16.5723 4.87793H4.25977L5.37012 16.5527ZM8.25977 7.31738C8.45039 7.31738 8.63376 7.39403 8.76855 7.53125C8.90332 7.66847 8.97852 7.85479 8.97852 8.04883V15.3662C8.97842 15.56 8.90306 15.7457 8.76855 15.8828C8.63376 16.02 8.45039 16.0977 8.25977 16.0977C8.06926 16.0976 7.88667 16.02 7.75195 15.8828C7.61735 15.7457 7.54111 15.5601 7.54102 15.3662V8.04883C7.54102 7.85477 7.61716 7.66847 7.75195 7.53125C7.88666 7.39418 8.06931 7.31747 8.25977 7.31738ZM12.5723 7.31738C12.7629 7.31738 12.9463 7.39403 13.0811 7.53125C13.2158 7.66847 13.291 7.85479 13.291 8.04883V15.3662C13.2909 15.56 13.2156 15.7457 13.0811 15.8828C12.9463 16.02 12.7629 16.0977 12.5723 16.0977C12.3818 16.0976 12.1992 16.02 12.0645 15.8828C11.9299 15.7457 11.8536 15.5601 11.8535 15.3662V8.04883C11.8535 7.85477 11.9297 7.66847 12.0645 7.53125C12.1992 7.39418 12.3818 7.31747 12.5723 7.31738ZM10.416 1.46387C9.90785 1.46395 9.42088 1.66938 9.06152 2.03516C8.70208 2.40108 8.5 2.89754 8.5 3.41504H12.333C12.333 2.89757 12.1309 2.40108 11.7715 2.03516C11.412 1.66923 10.9243 1.46387 10.416 1.46387Z" fill="currentColor"/>
<path d="M10.416 0C10.8565 0 11.2932 0.0881642 11.7002 0.259766C12.107 0.431353 12.4767 0.682999 12.7881 1C13.0995 1.31708 13.3471 1.69412 13.5156 2.1084C13.684 2.52252 13.7705 2.96683 13.7705 3.41504H19.2812C19.4717 3.41513 19.6544 3.49181 19.7891 3.62891C19.9239 3.76613 20 3.95242 20 4.14648C20 4.34049 19.9238 4.52687 19.7891 4.66406C19.6544 4.80107 19.4717 4.87784 19.2812 4.87793H18.0156L16.8945 16.6934C16.8085 17.5987 16.394 18.4395 15.7324 19.0508C15.0709 19.6618 14.2097 20.0003 13.3164 20H7.5166C6.6233 20.0001 5.76198 19.6611 5.10059 19.0498C4.43926 18.4385 4.02544 17.5985 3.93945 16.6934L2.81641 4.87793H1.55176C1.36131 4.87793 1.1787 4.80105 1.04395 4.66406C0.909187 4.52687 0.833045 4.34049 0.833008 4.14648C0.833008 3.95242 0.909154 3.76613 1.04395 3.62891C1.17872 3.49183 1.36124 3.41504 1.55176 3.41504H7.0625C7.0625 2.96679 7.14894 2.52255 7.31738 2.1084C7.48595 1.69412 7.73346 1.31708 8.04492 1C8.35634 0.68303 8.72596 0.431326 9.13281 0.259766C9.53963 0.0882351 9.97569 4.34735e-05 10.416 0ZM5.37012 16.5527C5.42179 17.0957 5.66971 17.6001 6.06641 17.9668C6.46327 18.3335 6.98065 18.5363 7.5166 18.5361H13.3164C13.8523 18.5362 14.3688 18.3334 14.7656 17.9668C15.1625 17.6001 15.4112 17.0958 15.4629 16.5527L16.5723 4.87793H4.25977L5.37012 16.5527ZM8.25977 7.31738C8.45039 7.31738 8.63376 7.39403 8.76855 7.53125C8.90332 7.66847 8.97852 7.85479 8.97852 8.04883V15.3662C8.97842 15.56 8.90306 15.7457 8.76855 15.8828C8.63376 16.02 8.45039 16.0977 8.25977 16.0977C8.06926 16.0976 7.88667 16.02 7.75195 15.8828C7.61735 15.7457 7.54111 15.5601 7.54102 15.3662V8.04883C7.54102 7.85477 7.61716 7.66847 7.75195 7.53125C7.88666 7.39418 8.06931 7.31747 8.25977 7.31738ZM12.5723 7.31738C12.7629 7.31738 12.9463 7.39403 13.0811 7.53125C13.2158 7.66847 13.291 7.85479 13.291 8.04883V15.3662C13.2909 15.56 13.2156 15.7457 13.0811 15.8828C12.9463 16.02 12.7629 16.0977 12.5723 16.0977C12.3818 16.0976 12.1992 16.02 12.0645 15.8828C11.9299 15.7457 11.8536 15.5601 11.8535 15.3662V8.04883C11.8535 7.85477 11.9297 7.66847 12.0645 7.53125C12.1992 7.39418 12.3818 7.31747 12.5723 7.31738ZM10.416 1.46387C9.90785 1.46395 9.42088 1.66938 9.06152 2.03516C8.70208 2.40108 8.5 2.89754 8.5 3.41504H12.333C12.333 2.89757 12.1309 2.40108 11.7715 2.03516C11.412 1.66923 10.9243 1.46387 10.416 1.46387Z" stroke="currentColor"/>
</svg>
