<svg viewBox="0 0 54 36" fill="none" xmlns="http://www.w3.org/2000/svg">
<path d="M30.5383 7.08691H23.756C17.5585 7.08691 16.0859 8.56056 16.0859 14.7448V21.5282C16.0859 27.7235 17.5485 29.1972 23.7438 29.1972H30.5272C36.7225 29.1972 38.1962 27.7346 38.1962 21.5393V14.757C38.1962 8.55946 36.7336 7.08691 30.5383 7.08691ZM33.9355 22.8626H32.3226C31.7123 22.8626 31.5288 22.3684 30.4344 21.2739C29.4792 20.3531 29.0757 20.2381 28.8336 20.2381C28.4997 20.2381 28.408 20.3298 28.408 20.7908V22.2413C28.408 22.6337 28.2808 22.8637 27.256 22.8637C26.2616 22.7961 25.2974 22.4937 24.4426 21.9811C23.5878 21.4686 22.8668 20.7606 22.3387 19.9153C21.0855 18.3571 20.2139 16.5274 19.7938 14.5723C19.7938 14.3302 19.8856 14.1113 20.3466 14.1113H21.9595C22.3741 14.1113 22.5233 14.296 22.6847 14.7216C23.4674 17.0255 24.8029 19.0287 25.3446 19.0287C25.5524 19.0287 25.6431 18.9369 25.6431 18.4184V16.046C25.5745 14.9637 24.9997 14.8719 24.9997 14.4806C25.0071 14.3774 25.0544 14.2811 25.1316 14.2121C25.2087 14.1432 25.3097 14.107 25.4131 14.1113H27.947C28.293 14.1113 28.408 14.2838 28.408 14.6984V17.8999C28.408 18.246 28.5572 18.3609 28.6611 18.3609C28.869 18.3609 29.0293 18.246 29.4096 17.8657C30.2264 16.8695 30.8937 15.7597 31.3906 14.5712C31.4417 14.4287 31.5379 14.3067 31.6646 14.2237C31.7913 14.1407 31.9415 14.1013 32.0926 14.1113H33.7056C34.1887 14.1113 34.2915 14.3534 34.1887 14.6984C33.6022 16.0122 32.8766 17.2594 32.0241 18.4184C31.8505 18.6837 31.7809 18.8219 32.0241 19.1326C32.1844 19.3747 32.7493 19.8467 33.1296 20.2956C33.6821 20.847 34.141 21.4848 34.4883 22.1838C34.6265 22.6326 34.3954 22.8626 33.9355 22.8626Z" fill="#0077FF"/>
</svg>
