<svg viewBox="0 0 24 24" fill="none" xmlns="http://www.w3.org/2000/svg">
<path d="M12.0001 7C12.2481 7 12.4562 6.904 12.6242 6.712C12.7923 6.52 12.876 6.28267 12.8754 6C12.8749 5.71733 12.7908 5.48 12.6234 5.288C12.4559 5.096 12.2481 5 12.0001 5C11.7521 5 11.5444 5.096 11.3769 5.288C11.2094 5.48 11.1254 5.71733 11.1248 6C11.1242 6.28267 11.2083 6.52033 11.3769 6.713C11.5455 6.90567 11.7533 7.00133 12.0001 7ZM14.4729 7H16.0047C16.4424 7 16.8217 7.16667 17.1426 7.5C17.4636 7.83333 17.6605 8.24167 17.7335 8.725L18.9808 18.725C19.0537 19.325 18.9189 19.8543 18.5764 20.313C18.2339 20.7717 17.7924 21.0007 17.252 21C13.9975 19.141 10.0027 19.141 6.74822 21C6.20844 21 5.76698 20.771 5.42386 20.313C5.08074 19.855 4.94594 19.3257 5.01946 18.725L6.26679 8.725C6.33973 8.24167 6.53668 7.83333 6.85763 7.5C7.17858 7.16667 7.55789 7 7.99555 7H9.52735C9.48359 6.83333 9.44711 6.671 9.41794 6.513C9.38876 6.355 9.37417 6.184 9.37417 6C9.37417 5.16667 9.62947 4.45833 10.1401 3.875C10.6507 3.29167 11.2707 3 12.0001 3C12.7296 3 13.3496 3.29167 13.8602 3.875C14.3708 4.45833 14.6261 5.16667 14.6261 6C14.6261 6.18333 14.6115 6.35433 14.5823 6.513C14.5531 6.67167 14.5167 6.834 14.4729 7Z" fill="currentColor"/>
</svg>
