<svg viewBox="0 0 54 36" fill="none" xmlns="http://www.w3.org/2000/svg">
<path d="M24.5253 21.6995L30.943 17.9998L24.5253 14.3001V21.6995ZM38.8199 12.0433C38.9807 12.6229 39.092 13.3998 39.1662 14.3864C39.2527 15.373 39.2898 16.2239 39.2898 16.9639L39.364 17.9998C39.364 20.7005 39.1662 22.686 38.8199 23.9563C38.5108 25.0662 37.7936 25.7814 36.6807 26.0897C36.0995 26.2501 35.036 26.3611 33.4038 26.435C31.7963 26.5214 30.3248 26.5584 28.9645 26.5584L26.9984 26.6324C21.8172 26.6324 18.5898 26.435 17.3161 26.0897C16.2032 25.7814 15.486 25.0662 15.1769 23.9563C15.0161 23.3766 14.9049 22.5997 14.8307 21.6131C14.7441 20.6265 14.707 19.7756 14.707 19.0357L14.6328 17.9998C14.6328 15.299 14.8307 13.3135 15.1769 12.0433C15.486 10.9334 16.2032 10.2181 17.3161 9.90981C17.8973 9.74949 18.9608 9.6385 20.593 9.5645C22.2006 9.47818 23.6721 9.44118 25.0323 9.44118L26.9984 9.36719C32.1796 9.36719 35.407 9.5645 36.6807 9.90981C37.7936 10.2181 38.5108 10.9334 38.8199 12.0433Z" fill="#FF0000"/>
</svg>
